<?xml version="1.0" standalone="no"?>
<!DOCTYPE svg PUBLIC "-//W3C//DTD SVG 1.1//EN" "http://www.w3.org/Graphics/SVG/1.1/DTD/svg11.dtd" >
<svg xmlns="http://www.w3.org/2000/svg" xmlns:xlink="http://www.w3.org/1999/xlink" version="1.1">
<metadata></metadata>
<defs>
<font id="gt_walsheim_pro_trialMdOb" horiz-adv-x="1165" >
<font-face units-per-em="2048" ascent="1536" descent="-512" />
<missing-glyph horiz-adv-x="512" />
<glyph horiz-adv-x="0" />
<glyph horiz-adv-x="682" />
<glyph unicode=" "  horiz-adv-x="512" />
<glyph unicode="&#x09;" horiz-adv-x="512" />
<glyph unicode="&#xa0;" horiz-adv-x="512" />
<glyph unicode="!" horiz-adv-x="575" d="M137 137q0 73 54.5 126.5t127.5 53.5q64 0 107 -44t43 -107q0 -72 -55 -125t-127 -53q-65 0 -107.5 43.5t-42.5 105.5z" />
<glyph unicode="," horiz-adv-x="595" d="M106 -238l11 105q96 0 153 41q50 39 60 92q-12 -12 -49 -12q-63 0 -103.5 43t-40.5 106q0 74 56 127t135 53q73 0 115 -53t42 -160q0 -161 -98 -251.5t-281 -90.5z" />
<glyph unicode="-" horiz-adv-x="602" d="M113 483l20 199h479l-20 -199h-479z" />
<glyph unicode="." horiz-adv-x="575" d="M137 137q0 73 54.5 126.5t127.5 53.5q64 0 107 -44t43 -107q0 -72 -55 -125t-127 -53q-65 0 -107.5 43.5t-42.5 105.5z" />
<glyph unicode="0" horiz-adv-x="1187" d="M141 477l52 479q11 101 56.5 192.5t117 160t171 109t210.5 40.5q148 0 257 -69.5t158.5 -183.5t34.5 -249l-49 -479q-11 -101 -57 -192.5t-117.5 -160t-171 -109t-211.5 -40.5q-146 0 -255 67t-159.5 181.5t-36.5 253.5zM377 477q-12 -122 52.5 -206.5t182.5 -84.5 q120 0 204.5 84.5t96.5 206.5l50 479q12 122 -54 206.5t-186 84.5q-119 0 -202 -84.5t-95 -206.5z" />
<glyph unicode="1" horiz-adv-x="749" d="M168 1010l20 186q98 0 160.5 12.5t100.5 42.5t55 72.5t24 110.5h224l-152 -1434h-244l107 1010h-295z" />
<glyph unicode="2" horiz-adv-x="1079" d="M96 0q9 95 28 176t42.5 142.5t58.5 115.5t68.5 92t81 76t86 63.5t94.5 57.5q12 7 53.5 31t57.5 33.5t51.5 33.5t51.5 39t40.5 41.5t35.5 50t20 54.5t9 65q0 89 -50.5 132.5t-135.5 43.5q-103 0 -170.5 -60t-79.5 -177h-235q11 106 58 192.5t117.5 141.5t157 84.5 t179.5 29.5q174 0 283.5 -97.5t109.5 -270.5q0 -44 -8.5 -85.5t-20.5 -75t-34.5 -68t-42 -60t-51.5 -54.5t-54.5 -47t-59.5 -43.5t-57.5 -38t-57.5 -35.5t-52 -32q-84 -53 -139 -97.5t-84.5 -85.5t-42 -76.5t-15.5 -80.5h623l-23 -211h-893z" />
<glyph unicode="3" d="M119 479h235q-15 -135 54.5 -214t187.5 -79t192 76t74 187q0 90 -55.5 144t-179.5 54h-97l23 209h98q70 0 120 18.5t76 51.5t37 69t11 78q0 174 -188 174q-225 0 -248 -237h-236q21 203 161.5 325.5t336.5 122.5q177 0 294.5 -100t117.5 -266q0 -123 -64.5 -212 t-167.5 -130q197 -83 197 -301q0 -136 -75.5 -246t-196 -169t-257.5 -59q-101 0 -188 34t-150 96.5t-94 159.5t-18 214z" />
<glyph unicode="4" horiz-adv-x="1144" d="M178 430l107 1004h235l-84 -793h287l45 430h236l-46 -430h197l-22 -211h-197l-45 -430h-236l45 430h-522z" />
<glyph unicode="5" horiz-adv-x="1241" d="M182 477h236q-13 -121 51.5 -206t185.5 -85q128 0 214.5 95t86.5 225q0 112 -65 187t-178 75q-164 0 -256 -158h-236l86 824h871l-23 -211h-659l-41 -398q47 73 139 112.5t194 39.5q188 0 297 -126t109 -314q0 -151 -71 -279.5t-200 -205.5t-288 -77q-113 0 -205 40.5 t-149 109t-83.5 160t-15.5 192.5z" />
<glyph unicode="6" d="M123 426q0 178 125 348l481 660h270l-350 -457q10 2 31 2q139 0 244.5 -62.5t159 -165t53.5 -227.5q0 -108 -42 -208.5t-115 -175.5t-177.5 -120t-222.5 -45q-208 0 -332.5 130.5t-124.5 320.5zM360 446q0 -111 64.5 -185.5t175.5 -74.5q127 0 213 95t86 225 q0 111 -65.5 186.5t-176.5 75.5q-127 0 -212 -95t-85 -227z" />
<glyph unicode="7" horiz-adv-x="980" d="M131 0l657 1223h-581l22 211h914l-762 -1434h-250z" />
<glyph unicode="8" horiz-adv-x="1206" d="M154 373q0 76 24 149t82 138t141 94q-76 34 -110.5 105t-34.5 157q0 182 139 312t357 130q197 0 308 -107t111 -266q0 -104 -49.5 -194.5t-156.5 -136.5q86 -32 130 -117.5t44 -185.5q0 -92 -38.5 -177.5t-106.5 -152t-169.5 -106.5t-220.5 -40q-209 0 -329.5 114 t-120.5 284zM391 395q0 -90 62.5 -149.5t171.5 -59.5q123 0 200.5 74t77.5 174q0 86 -61 147.5t-174 61.5q-124 0 -200.5 -74t-76.5 -174zM492 1020q0 -80 53.5 -134.5t146.5 -54.5q106 0 174 68t68 160q0 79 -53.5 133.5t-147.5 54.5q-106 0 -173.5 -66.5t-67.5 -160.5z " />
<glyph unicode="9" d="M180 905q0 110 42 211t115 176.5t177.5 120.5t222.5 45q139 0 244.5 -61.5t159 -163t53.5 -225.5q0 -176 -127 -349l-479 -659h-271l351 455q-223 0 -355.5 125.5t-132.5 324.5zM418 928q0 -111 66 -186.5t178 -75.5q126 0 211 95.5t85 225.5q0 110 -64.5 185t-176.5 75 q-127 0 -213 -94.5t-86 -224.5z" />
<glyph unicode=":" horiz-adv-x="575" d="M137 137q0 73 54.5 126.5t127.5 53.5q64 0 107 -44t43 -107q0 -72 -55 -125t-127 -53q-65 0 -107.5 43.5t-42.5 105.5z" />
<glyph unicode=";" horiz-adv-x="595" d="M106 -238l11 105q96 0 153 41q50 39 60 92q-12 -12 -49 -12q-63 0 -103.5 43t-40.5 106q0 74 56 127t135 53q73 0 115 -53t42 -160q0 -161 -98 -251.5t-281 -90.5z" />
<glyph unicode="?" horiz-adv-x="575" d="M137 137q0 73 54.5 126.5t127.5 53.5q64 0 107 -44t43 -107q0 -72 -55 -125t-127 -53q-65 0 -107.5 43.5t-42.5 105.5z" />
<glyph unicode="A" horiz-adv-x="1169" d="M6 0l647 1434h166l344 -1434h-248l-43 182h-538l-80 -182h-248zM428 393h395l-129 649z" />
<glyph unicode="B" horiz-adv-x="1224" d="M150 0l151 1434h490q101 0 178 -22.5t122 -57t73.5 -82t38 -91.5t9.5 -91q0 -76 -26 -141t-69 -108.5t-92.5 -72t-100.5 -39.5q34 0 73 -19t75.5 -53.5t60.5 -92t24 -124.5q0 -34 -5.5 -70t-21.5 -80t-40 -83.5t-65 -78t-93 -66.5t-127 -45t-164 -17h-491zM408 211h266 q63 0 111 17t73 40.5t40.5 55t19.5 55t4 47.5q0 34 -9 65t-30.5 62t-63.5 49.5t-100 18.5h-268zM473 831h254q61 0 107.5 16.5t72 40t41.5 54.5t20.5 56t4.5 49q0 30 -8.5 57.5t-29 56t-63.5 45.5t-104 17h-254z" />
<glyph unicode="C" horiz-adv-x="1587" d="M150 647q0 158 59 305.5t164 262.5t262.5 184t341.5 69q144 0 262 -42.5t197 -117t123.5 -176.5t48.5 -221h-248q-12 156 -114.5 251t-280.5 95q-126 0 -235 -50t-181.5 -133t-114 -189.5t-41.5 -220.5q0 -209 129.5 -348.5t333.5 -139.5q155 0 275.5 80.5t171.5 204.5 h258q-71 -215 -272.5 -355.5t-463.5 -140.5q-157 0 -286 54.5t-213.5 148t-130 217t-45.5 262.5z" />
<glyph unicode="D" horiz-adv-x="1435" d="M150 0l151 1434h465q128 0 238 -35.5t189 -97.5t135 -145t83 -178t27 -196q0 -147 -58.5 -286.5t-162 -250t-261.5 -178t-342 -67.5h-464zM408 211h229q124 0 230.5 48t177 126t110 177t39.5 202q0 90 -29.5 171.5t-84.5 146t-142.5 103t-194.5 38.5h-229z" />
<glyph unicode="E" horiz-adv-x="1116" d="M150 0l151 1434h827l-22 -211h-592l-43 -406h592l-23 -211h-591l-41 -395h591l-22 -211h-827z" />
<glyph unicode="F" horiz-adv-x="1101" d="M150 0l151 1434h827l-22 -211h-592l-49 -455h592l-21 -211h-592l-59 -557h-235z" />
<glyph unicode="G" horiz-adv-x="1716" d="M150 637q0 160 61 310.5t166 265.5t259 185t329 70q254 0 412 -134q155 -132 155 -323v-7h-238q-8 108 -104 180.5t-246 72.5q-119 0 -224 -50.5t-176 -134t-112 -192t-41 -223.5q0 -97 30 -182.5t86.5 -153t147 -106.5t203.5 -39q95 0 175.5 27.5t136.5 74.5t93.5 105 t55.5 125h-275l21 211h682l-21 -211h-157q-74 -247 -271 -395t-473 -148q-164 0 -295 55.5t-212.5 150t-124.5 213.5t-43 253z" />
<glyph unicode="H" horiz-adv-x="1361" d="M150 0l151 1434h236l-66 -617h592l65 617h236l-152 -1434h-235l63 606h-591l-64 -606h-235z" />
<glyph unicode="I" horiz-adv-x="542" d="M150 0l151 1434h244l-152 -1434h-243z" />
<glyph unicode="J" horiz-adv-x="1097" d="M74 467h235q-3 -27 -3 -52q0 -97 40 -160q51 -79 164 -79q112 0 180 78.5t82 210.5l102 969h236l-102 -969q-24 -220 -164 -360t-355 -140q-145 0 -245 67t-142 180q-32 83 -32 182q0 36 4 73z" />
<glyph unicode="K" horiz-adv-x="1243" d="M150 0l151 1434h236l-68 -631l600 631h295l-682 -717l530 -717h-294l-467 629l-66 -629h-235z" />
<glyph unicode="L" horiz-adv-x="878" d="M150 0l151 1434h236l-129 -1223h442l-23 -211h-677z" />
<glyph unicode="M" horiz-adv-x="1665" d="M150 0l151 1434h225l346 -1067l570 1067h225l-151 -1434h-236l94 887l-452 -887h-179l-264 887l-94 -887h-235z" />
<glyph unicode="N" horiz-adv-x="1359" d="M150 0l151 1434h258l459 -1020l108 1020h236l-152 -1434h-258l-460 1020l-107 -1020h-235z" />
<glyph unicode="O" horiz-adv-x="1638" d="M150 643q0 126 38 247.5t111 225.5t171.5 183t227.5 124t271 45q158 0 287.5 -55.5t212 -150.5t127 -216t44.5 -255q0 -158 -60.5 -307t-165.5 -264t-259.5 -185t-331.5 -70q-158 0 -288 56t-213 150.5t-127.5 216t-44.5 255.5zM399 659q0 -95 29.5 -181.5t84.5 -154 t141 -107.5t190 -40q156 0 283.5 86.5t196.5 223t69 288.5q0 129 -50.5 237.5t-154 177t-240.5 68.5q-156 0 -284 -86.5t-196.5 -223t-68.5 -288.5z" />
<glyph unicode="P" horiz-adv-x="1220" d="M150 0l151 1434h514q207 0 331 -131t124 -324q0 -145 -70.5 -270.5t-200.5 -202t-290 -76.5h-279l-45 -430h-235zM453 641h278q129 0 216 95t87 225q0 111 -65.5 186.5t-175.5 75.5h-279z" />
<glyph unicode="Q" horiz-adv-x="1638" d="M150 645q0 125 38 246.5t111 225t171.5 182.5t227.5 124t271 45q158 0 287.5 -56t212 -151t127 -216.5t44.5 -256.5q0 -169 -66.5 -324.5t-196 -277.5t-302.5 -180l105 -172l-217 -104l-148 235q-157 1 -286 58t-210 152.5t-125 216.5t-44 253zM399 659 q0 -95 29.5 -181.5t84.5 -154t141 -107.5t190 -40q156 0 283.5 86.5t196.5 223t69 288.5q0 129 -50.5 237.5t-154 177t-240.5 68.5q-156 0 -284 -86.5t-196.5 -223t-68.5 -288.5z" />
<glyph unicode="R" horiz-adv-x="1247" d="M150 0l151 1434h514q207 0 331 -131t124 -324q0 -169 -97 -308t-258 -204l236 -467h-268l-217 430h-236l-45 -430h-235zM453 641h278q129 0 216 95t87 225q0 111 -65.5 186.5t-175.5 75.5h-279z" />
<glyph unicode="S" d="M137 469h236q-3 -25 -3 -47q0 -104 56 -168q68 -78 188 -78q111 0 188 65t77 167q0 37 -12.5 67.5t-29.5 50.5t-48.5 38.5t-54 28t-60.5 23.5q-54 20 -89 34t-80 34t-74 38t-62 42t-52.5 50t-37 58t-25.5 70.5t-8 83.5q0 100 41 184.5t109 140t155.5 86.5t181.5 31 q200 0 316 -126q99 -108 99 -266q0 -27 -3 -56h-236q2 19 2 37q0 81 -42 135q-51 64 -154 65q-96 0 -164 -52.5t-68 -141.5q0 -75 50.5 -120t138.5 -79q180 -69 249 -109q152 -88 186 -224q11 -44 11 -95q0 -139 -75.5 -248t-196.5 -166t-262 -57q-217 -1 -344 137 q-107 116 -107 297q0 34 4 70z" />
<glyph unicode="T" horiz-adv-x="987" d="M150 1223l22 211h946l-22 -211h-357l-129 -1223h-235l129 1223h-354z" />
<glyph unicode="U" horiz-adv-x="1310" d="M188 479l101 955h235l-100 -955q-2 -19 -2 -37q0 -105 59 -179q69 -87 193 -87q123 0 210 87t101 216l100 955h236l-100 -955q-11 -104 -58 -198t-120.5 -164t-175.5 -111t-216 -41q-151 0 -263 69q-110 70 -162 187q-40 92 -41 199q0 29 3 59z" />
<glyph unicode="V" d="M156 1434h247l224 -1043l438 1043h248l-647 -1434h-166z" />
<glyph unicode="W" horiz-adv-x="2013" d="M162 1434h248l223 -1022l438 1022h174l225 -1022l437 1022h247l-647 -1434h-170l-221 1022l-440 -1022h-170z" />
<glyph unicode="X" horiz-adv-x="1150" d="M16 0l502 717l-350 717h266l238 -514l348 514h266l-502 -717l351 -717h-267l-239 512l-346 -512h-267z" />
<glyph unicode="Y" horiz-adv-x="1253" d="M174 1434h272l318 -617l373 617h258l-863 -1434h-258l347 573z" />
<glyph unicode="Z" horiz-adv-x="1181" d="M27 0l872 1223h-700l22 211h1092l-873 -1223h740l-23 -211h-1130z" />
<glyph unicode="_" horiz-adv-x="602" d="M113 483l20 199h479l-20 -199h-479z" />
<glyph unicode="a" horiz-adv-x="1234" d="M125 430q0 143 71.5 270t194.5 203t264 76q103 0 179 -41.5t114 -112.5l15 129h223l-101 -954h-223l15 129q-52 -69 -136.5 -111.5t-187.5 -42.5q-123 0 -222 62t-152.5 165.5t-53.5 227.5zM350 446q0 -117 67 -194.5t185 -77.5q133 0 222 99t89 235q0 117 -67.5 194.5 t-183.5 77.5q-133 0 -222.5 -99t-89.5 -235z" />
<glyph unicode="b" horiz-adv-x="1239" d="M150 0l151 1434h223l-65 -609q52 69 136 111.5t187 42.5q123 0 222 -62t152.5 -165.5t53.5 -227.5q0 -143 -71.5 -270t-194.5 -203t-264 -76q-103 0 -179 41.5t-114 112.5l-14 -129h-223zM422 446q0 -117 68 -194.5t184 -77.5q133 0 222 99t89 235q0 117 -67 194.5 t-185 77.5q-133 0 -222 -99t-89 -235z" />
<glyph unicode="c" horiz-adv-x="1093" d="M129 424q0 107 36 205.5t102.5 177t171 125.5t231.5 47q104 0 184.5 -31.5t128 -84.5t70.5 -119q20 -58 20 -121v-17h-223q0 81 -49.5 127.5t-147.5 46.5q-74 0 -133 -28t-95 -76.5t-54.5 -109t-18.5 -128.5q0 -118 59.5 -191t186.5 -73q89 0 141.5 38.5t83.5 115.5h224 q-39 -158 -167 -255.5t-313 -97.5q-110 0 -195.5 36.5t-137.5 100t-78.5 142.5t-26.5 170z" />
<glyph unicode="d" horiz-adv-x="1234" d="M125 430q0 143 71.5 270t194.5 203t264 76q103 0 179 -41.5t114 -112.5l66 609h223l-152 -1434h-223l15 129q-52 -69 -136.5 -111.5t-187.5 -42.5q-123 0 -222 62t-152.5 165.5t-53.5 227.5zM350 446q0 -117 67 -194.5t185 -77.5q133 0 222 99t89 235q0 117 -67.5 194.5 t-183.5 77.5q-133 0 -222.5 -99t-89.5 -235z" />
<glyph unicode="e" horiz-adv-x="1087" d="M129 420q0 156 64 283t182.5 201.5t269.5 74.5q188 0 300 -111.5t112 -287.5q0 -72 -29 -170h-682v-16q0 -232 229 -232q90 0 140 33t78 92h225q-34 -130 -160 -221t-307 -91q-139 0 -236 59.5t-141.5 158t-44.5 227.5zM365 575h475q1 16 1 31q0 86 -48 141 q-57 64 -162 64q-104 0 -179.5 -61.5t-86.5 -174.5z" />
<glyph unicode="f" horiz-adv-x="735" d="M121 768l20 186h195l12 119q8 75 28 135.5t45 98.5t59.5 66t63 41.5t65 21t56 9t44.5 1.5q42 0 72 -4t43 -8t34 -13l-20 -188q-54 14 -131 14q-17 0 -28.5 -1t-31 -9t-33 -22.5t-25.5 -44.5t-16 -72l-14 -144h250l-21 -186h-249l-80 -768h-223l79 768h-194z" />
<glyph unicode="g" horiz-adv-x="1228" d="M82 -109h225q3 -86 62 -140t184 -54q130 0 210 63.5t93 192.5l18 176q-56 -75 -142 -114.5t-181 -39.5q-184 0 -305 133t-121 322q0 143 71.5 270t194.5 203t264 76q103 0 179 -41.5t114 -112.5l15 129h223l-103 -1001q-23 -232 -174 -348q-141 -109 -374 -109 q-235 0 -355 123q-98 100 -98 252v20zM348 446q0 -117 68 -194.5t186 -77.5q133 0 222 99t89 235q0 118 -68.5 195t-185.5 77q-133 0 -222 -99t-89 -235z" />
<glyph unicode="h" d="M150 0l151 1434h223l-65 -613q53 77 137.5 117.5t191.5 40.5q199 0 273 -129q37 -63 37 -180q0 -47 -6 -103l-60 -567h-223l51 494q5 35 5 68q0 24 -3 46q-6 52 -23.5 91t-56.5 61t-96 22q-114 0 -181.5 -79.5t-80.5 -208.5l-51 -494h-223z" />
<glyph unicode="i" horiz-adv-x="522" d="M150 0l100 954h223l-100 -954h-223zM231 1288q0 73 55 126.5t128 53.5q64 0 106.5 -43.5t42.5 -107.5q0 -72 -55 -125t-127 -53q-65 0 -107.5 43.5t-42.5 105.5z" />
<glyph unicode="j" horiz-adv-x="522" d="M-49 -477l20 194q43 -6 78 -6t56 26.5t26 74.5l121 1142h221l-123 -1177q-30 -277 -260 -277q-36 0 -78 7t-61 16zM233 1288q0 73 55 126.5t128 53.5q64 0 106.5 -43.5t42.5 -107.5q0 -72 -55 -125t-127 -53q-65 0 -107.5 43.5t-42.5 105.5z" />
<glyph unicode="k" horiz-adv-x="1021" d="M150 0l151 1434h223l-96 -902l395 422h279l-449 -477l348 -477h-278l-305 420l-45 -420h-223z" />
<glyph unicode="l" horiz-adv-x="522" d="M150 0l151 1434h223l-151 -1434h-223z" />
<glyph unicode="m" horiz-adv-x="1712" d="M150 0l100 954h223l-14 -133q96 158 295 158q106 0 176 -46t96 -124q46 79 129 124.5t195 45.5q64 0 114.5 -15.5t82 -42.5t54 -63t31.5 -78q8 -40 12 -86q1 -15 0 -31q0 -30 -4 -59l-63 -604h-223l55 535q3 31 3 58q0 189 -157 189q-196 0 -229 -297l-51 -485h-223 l57 537q3 30 3 57q0 188 -155 188q-200 0 -233 -297l-51 -485h-223z" />
<glyph unicode="n" d="M150 0l100 954h223l-14 -133q53 77 137.5 117.5t191.5 40.5q199 0 273 -129q37 -63 37 -180q0 -47 -6 -103l-60 -567h-223l51 494q5 35 5 68q0 24 -3 46q-6 52 -23.5 91t-56.5 61t-96 22q-114 0 -181.5 -79.5t-80.5 -208.5l-51 -494h-223z" />
<glyph unicode="o" horiz-adv-x="1163" d="M125 430q0 108 42 208.5t114.5 175.5t176.5 120t222 45q140 0 246 -62.5t159.5 -165t53.5 -227.5q0 -108 -42 -208.5t-115 -175.5t-177.5 -120t-222.5 -45q-140 0 -245.5 62.5t-158.5 165t-53 227.5zM350 446q0 -117 67 -194.5t185 -77.5q133 0 222 99t89 235 q0 117 -67.5 194.5t-183.5 77.5q-133 0 -222.5 -99t-89.5 -235z" />
<glyph unicode="p" horiz-adv-x="1239" d="M98 -479l152 1433h223l-14 -129q52 69 136 111.5t187 42.5q123 0 222 -62t152.5 -165.5t53.5 -227.5q0 -143 -72 -270t-195.5 -203t-264.5 -76q-103 0 -179 41.5t-114 112.5l-63 -608h-224zM420 446q0 -116 68.5 -194t185.5 -78q133 0 222 99t89 235q0 117 -67 194.5 t-185 77.5q-133 0 -223 -99t-90 -235z" />
<glyph unicode="q" horiz-adv-x="1239" d="M129 430q0 143 71.5 270t194.5 203t264 76q103 0 179 -41.5t114 -112.5l15 129h223l-152 -1433h-223l66 608q-52 -69 -136.5 -111.5t-187.5 -42.5q-123 0 -222 62t-152.5 165.5t-53.5 227.5zM354 446q0 -117 67 -194.5t185 -77.5q133 0 222.5 99t89.5 235 q0 117 -68 194.5t-184 77.5q-133 0 -222.5 -99t-89.5 -235z" />
<glyph unicode="r" horiz-adv-x="774" d="M150 0l100 954h223l-16 -153q42 69 131.5 117.5t183.5 48.5q46 0 84 -15l-22 -204q-41 10 -80 10q-151 0 -235 -84.5t-103 -261.5l-43 -412h-223z" />
<glyph unicode="s" horiz-adv-x="929" d="M109 322h217q-2 -16 -1 -30q1 -66 37 -100q46 -40 130 -40q76 0 121.5 28.5t45.5 85.5q0 23 -8.5 39.5t-22 28t-41 23.5t-53.5 21t-71.5 25.5t-83.5 32.5q-103 41 -152 89.5t-49 142.5q0 99 56 171.5t140.5 106t182.5 33.5q163 -1 259 -91q85 -80 84 -202q0 -15 -1 -31 h-217q1 11 1 21q-1 55 -29 88q-34 39 -107 39q-66 0 -109 -30t-43 -83q0 -41 34.5 -62.5t150.5 -65.5q12 -5 19.5 -7.5t19.5 -7t22 -8.5q46 -17 74.5 -30t62 -35t52.5 -45.5t31.5 -59.5t12.5 -80q0 -102 -60 -175t-149.5 -106t-195.5 -33q-173 1 -275 93q-87 79 -87 209 q0 22 2 45z" />
<glyph unicode="t" horiz-adv-x="718" d="M121 768l20 186h162l29 289h223l-29 -289h219l-20 -186h-219l-41 -393q-2 -43 -3.5 -73t7.5 -51t17 -33.5t24.5 -19t32 -8.5t37.5 -2q62 0 118 9l-20 -197q-74 -12 -174 -12q-40 0 -69.5 3t-75 21.5t-73.5 51.5t-44 100q-10 42 -10 94q0 31 4 66l47 444h-162z" />
<glyph unicode="u" d="M174 387l59 567h224l-51 -493q-5 -35 -5 -67q0 -24 3 -47q6 -53 23.5 -92t56.5 -61t96 -22q114 0 181.5 80t80.5 209l51 493h223l-100 -954h-223l14 133q-112 -158 -330 -158q-198 0 -272 129q-37 63 -37 180q0 47 6 103z" />
<glyph unicode="v" horiz-adv-x="1011" d="M102 954h240l195 -635l333 635h240l-532 -954h-150z" />
<glyph unicode="w" horiz-adv-x="1542" d="M100 954h240l143 -604l279 604h219l152 -604l270 604h239l-471 -954h-149l-174 713l-328 -713h-149z" />
<glyph unicode="x" horiz-adv-x="913" d="M16 0l363 481l-256 473h258l145 -299l207 299h258l-354 -473l260 -481h-258l-150 307l-215 -307h-258z" />
<glyph unicode="y" horiz-adv-x="1183" d="M121 -104h225q-1 -105 56 -155t159 -50q223 0 246 227l22 219q-108 -157 -329 -157q-197 0 -271 129q-30 52 -37 127q-2 27 -2 56q0 48 7 99l59 567h223l-51 -493q-5 -35 -5 -67q0 -24 3 -47q6 -53 23.5 -92t56.5 -61t96 -22q114 0 181.5 80t80.5 209l51 493h224 l-109 -1040q-21 -209 -151 -315q-129 -105 -353 -105l2 4q-196 0 -307 99q-102 92 -102 248q0 23 2 47z" />
<glyph unicode="z" horiz-adv-x="897" d="M45 0l533 756h-441l21 198h811l-531 -755h451l-21 -199h-823z" />
<glyph unicode="&#xad;" horiz-adv-x="602" d="M113 483l20 199h479l-20 -199h-479z" />
<glyph unicode="&#xc0;" horiz-adv-x="1169" d="M6 0l647 1434h166l344 -1434h-248l-43 182h-538l-80 -182h-248zM428 393h395l-129 649z" />
<glyph unicode="&#xc1;" horiz-adv-x="1169" d="M6 0l647 1434h166l344 -1434h-248l-43 182h-538l-80 -182h-248zM428 393h395l-129 649z" />
<glyph unicode="&#xc2;" horiz-adv-x="1169" d="M6 0l647 1434h166l344 -1434h-248l-43 182h-538l-80 -182h-248zM428 393h395l-129 649z" />
<glyph unicode="&#xc3;" horiz-adv-x="1169" d="M6 0l647 1434h166l344 -1434h-248l-43 182h-538l-80 -182h-248zM428 393h395l-129 649z" />
<glyph unicode="&#xc4;" horiz-adv-x="1169" d="M6 0l647 1434h166l344 -1434h-248l-43 182h-538l-80 -182h-248zM428 393h395l-129 649z" />
<glyph unicode="&#xc5;" horiz-adv-x="1169" d="M6 0l647 1434h166l344 -1434h-248l-43 182h-538l-80 -182h-248zM428 393h395l-129 649z" />
<glyph unicode="&#xc6;" horiz-adv-x="2285" d="M6 0l647 1434h166l344 -1434h-248l-43 182h-538l-80 -182h-248zM428 393h395l-129 649zM1319 0l151 1434h828l-23 -211h-592l-43 -406h592l-22 -211h-592l-41 -395h592l-23 -211h-827z" />
<glyph unicode="&#xc7;" horiz-adv-x="1587" d="M150 647q0 158 59 305.5t164 262.5t262.5 184t341.5 69q144 0 262 -42.5t197 -117t123.5 -176.5t48.5 -221h-248q-12 156 -114.5 251t-280.5 95q-126 0 -235 -50t-181.5 -133t-114 -189.5t-41.5 -220.5q0 -209 129.5 -348.5t333.5 -139.5q155 0 275.5 80.5t171.5 204.5 h258q-71 -215 -272.5 -355.5t-463.5 -140.5q-157 0 -286 54.5t-213.5 148t-130 217t-45.5 262.5z" />
<glyph unicode="&#xc8;" horiz-adv-x="1116" d="M150 0l151 1434h827l-22 -211h-592l-43 -406h592l-23 -211h-591l-41 -395h591l-22 -211h-827z" />
<glyph unicode="&#xc9;" horiz-adv-x="1116" d="M150 0l151 1434h827l-22 -211h-592l-43 -406h592l-23 -211h-591l-41 -395h591l-22 -211h-827z" />
<glyph unicode="&#xca;" horiz-adv-x="1116" d="M150 0l151 1434h827l-22 -211h-592l-43 -406h592l-23 -211h-591l-41 -395h591l-22 -211h-827z" />
<glyph unicode="&#xcb;" horiz-adv-x="1116" d="M150 0l151 1434h827l-22 -211h-592l-43 -406h592l-23 -211h-591l-41 -395h591l-22 -211h-827z" />
<glyph unicode="&#xcc;" horiz-adv-x="542" d="M150 0l151 1434h244l-152 -1434h-243z" />
<glyph unicode="&#xcd;" horiz-adv-x="542" d="M150 0l151 1434h244l-152 -1434h-243z" />
<glyph unicode="&#xce;" horiz-adv-x="542" d="M150 0l151 1434h244l-152 -1434h-243z" />
<glyph unicode="&#xcf;" horiz-adv-x="542" d="M150 0l151 1434h244l-152 -1434h-243z" />
<glyph unicode="&#xd0;" horiz-adv-x="1435" d="M150 0l151 1434h465q128 0 238 -35.5t189 -97.5t135 -145t83 -178t27 -196q0 -147 -58.5 -286.5t-162 -250t-261.5 -178t-342 -67.5h-464zM408 211h229q124 0 230.5 48t177 126t110 177t39.5 202q0 90 -29.5 171.5t-84.5 146t-142.5 103t-194.5 38.5h-229z" />
<glyph unicode="&#xd1;" horiz-adv-x="1359" d="M150 0l151 1434h258l459 -1020l108 1020h236l-152 -1434h-258l-460 1020l-107 -1020h-235z" />
<glyph unicode="&#xd2;" horiz-adv-x="1638" d="M150 643q0 126 38 247.5t111 225.5t171.5 183t227.5 124t271 45q158 0 287.5 -55.5t212 -150.5t127 -216t44.5 -255q0 -158 -60.5 -307t-165.5 -264t-259.5 -185t-331.5 -70q-158 0 -288 56t-213 150.5t-127.5 216t-44.5 255.5zM399 659q0 -95 29.5 -181.5t84.5 -154 t141 -107.5t190 -40q156 0 283.5 86.5t196.5 223t69 288.5q0 129 -50.5 237.5t-154 177t-240.5 68.5q-156 0 -284 -86.5t-196.5 -223t-68.5 -288.5z" />
<glyph unicode="&#xd3;" horiz-adv-x="1638" d="M150 643q0 126 38 247.5t111 225.5t171.5 183t227.5 124t271 45q158 0 287.5 -55.5t212 -150.5t127 -216t44.5 -255q0 -158 -60.5 -307t-165.5 -264t-259.5 -185t-331.5 -70q-158 0 -288 56t-213 150.5t-127.5 216t-44.5 255.5zM399 659q0 -95 29.5 -181.5t84.5 -154 t141 -107.5t190 -40q156 0 283.5 86.5t196.5 223t69 288.5q0 129 -50.5 237.5t-154 177t-240.5 68.5q-156 0 -284 -86.5t-196.5 -223t-68.5 -288.5z" />
<glyph unicode="&#xd4;" horiz-adv-x="1638" d="M150 643q0 126 38 247.5t111 225.5t171.5 183t227.5 124t271 45q158 0 287.5 -55.5t212 -150.5t127 -216t44.5 -255q0 -158 -60.5 -307t-165.5 -264t-259.5 -185t-331.5 -70q-158 0 -288 56t-213 150.5t-127.5 216t-44.5 255.5zM399 659q0 -95 29.5 -181.5t84.5 -154 t141 -107.5t190 -40q156 0 283.5 86.5t196.5 223t69 288.5q0 129 -50.5 237.5t-154 177t-240.5 68.5q-156 0 -284 -86.5t-196.5 -223t-68.5 -288.5z" />
<glyph unicode="&#xd5;" horiz-adv-x="1638" d="M150 643q0 126 38 247.5t111 225.5t171.5 183t227.5 124t271 45q158 0 287.5 -55.5t212 -150.5t127 -216t44.5 -255q0 -158 -60.5 -307t-165.5 -264t-259.5 -185t-331.5 -70q-158 0 -288 56t-213 150.5t-127.5 216t-44.5 255.5zM399 659q0 -95 29.5 -181.5t84.5 -154 t141 -107.5t190 -40q156 0 283.5 86.5t196.5 223t69 288.5q0 129 -50.5 237.5t-154 177t-240.5 68.5q-156 0 -284 -86.5t-196.5 -223t-68.5 -288.5z" />
<glyph unicode="&#xd6;" horiz-adv-x="1638" d="M150 643q0 126 38 247.5t111 225.5t171.5 183t227.5 124t271 45q158 0 287.5 -55.5t212 -150.5t127 -216t44.5 -255q0 -158 -60.5 -307t-165.5 -264t-259.5 -185t-331.5 -70q-158 0 -288 56t-213 150.5t-127.5 216t-44.5 255.5zM399 659q0 -95 29.5 -181.5t84.5 -154 t141 -107.5t190 -40q156 0 283.5 86.5t196.5 223t69 288.5q0 129 -50.5 237.5t-154 177t-240.5 68.5q-156 0 -284 -86.5t-196.5 -223t-68.5 -288.5z" />
<glyph unicode="&#xd8;" horiz-adv-x="1638" d="M150 643q0 126 38 247.5t111 225.5t171.5 183t227.5 124t271 45q158 0 287.5 -55.5t212 -150.5t127 -216t44.5 -255q0 -158 -60.5 -307t-165.5 -264t-259.5 -185t-331.5 -70q-158 0 -288 56t-213 150.5t-127.5 216t-44.5 255.5zM399 659q0 -95 29.5 -181.5t84.5 -154 t141 -107.5t190 -40q156 0 283.5 86.5t196.5 223t69 288.5q0 129 -50.5 237.5t-154 177t-240.5 68.5q-156 0 -284 -86.5t-196.5 -223t-68.5 -288.5z" />
<glyph unicode="&#xd9;" horiz-adv-x="1310" d="M188 479l101 955h235l-100 -955q-12 -129 57 -216t193 -87q123 0 210 87t101 216l100 955h236l-100 -955q-11 -104 -58 -198t-120.5 -164t-175.5 -111t-216 -41q-151 0 -262.5 69.5t-163 186.5t-37.5 258z" />
<glyph unicode="&#xda;" horiz-adv-x="1310" d="M188 479l101 955h235l-100 -955q-12 -129 57 -216t193 -87q123 0 210 87t101 216l100 955h236l-100 -955q-11 -104 -58 -198t-120.5 -164t-175.5 -111t-216 -41q-151 0 -262.5 69.5t-163 186.5t-37.5 258z" />
<glyph unicode="&#xdb;" horiz-adv-x="1310" d="M188 479l101 955h235l-100 -955q-12 -129 57 -216t193 -87q123 0 210 87t101 216l100 955h236l-100 -955q-11 -104 -58 -198t-120.5 -164t-175.5 -111t-216 -41q-151 0 -262.5 69.5t-163 186.5t-37.5 258z" />
<glyph unicode="&#xdc;" horiz-adv-x="1310" d="M188 479l101 955h235l-100 -955q-12 -129 57 -216t193 -87q123 0 210 87t101 216l100 955h236l-100 -955q-11 -104 -58 -198t-120.5 -164t-175.5 -111t-216 -41q-151 0 -262.5 69.5t-163 186.5t-37.5 258z" />
<glyph unicode="&#xdd;" horiz-adv-x="1253" d="M174 1434h272l318 -617l373 617h258l-863 -1434h-258l347 573z" />
<glyph unicode="&#xde;" horiz-adv-x="1220" d="M150 0l151 1434h514q207 0 331 -131t124 -324q0 -145 -70.5 -270.5t-200.5 -202t-290 -76.5h-279l-45 -430h-235zM453 641h278q129 0 216 95t87 225q0 111 -65.5 186.5t-175.5 75.5h-279z" />
<glyph unicode="&#xdf;" horiz-adv-x="1859" d="M109 322h217q-10 -89 35.5 -129.5t130.5 -40.5q76 0 121.5 28.5t45.5 85.5q0 23 -8.5 39.5t-22 28t-41 23.5t-53.5 21t-71.5 25.5t-83.5 32.5q-103 41 -152 89.5t-49 142.5q0 99 56 171.5t140.5 106t182.5 33.5q163 0 258.5 -90.5t83.5 -233.5h-217q6 70 -27.5 109 t-107.5 39q-66 0 -109 -30t-43 -83q0 -41 34.5 -62.5t150.5 -65.5q12 -5 19.5 -7.5t19.5 -7t22 -8.5q46 -17 74.5 -30t62 -35t52.5 -45.5t31.5 -59.5t12.5 -80q0 -102 -60 -175t-149.5 -106t-195.5 -33q-173 0 -275 92.5t-85 254.5zM1038 322h217q-10 -89 35.5 -129.5 t130.5 -40.5q76 0 122 28.5t46 85.5q0 23 -8.5 39.5t-22 28t-41 23.5t-53.5 21t-71.5 25.5t-83.5 32.5q-103 41 -152 89.5t-49 142.5q0 99 56 171.5t140.5 106t182.5 33.5q163 0 258.5 -90.5t83.5 -233.5h-217q6 70 -27.5 109t-107.5 39q-66 0 -109 -30t-43 -83 q0 -41 34.5 -62.5t150.5 -65.5q12 -5 19.5 -7.5t19.5 -7t22 -8.5q46 -17 74.5 -30t62 -35t52.5 -45.5t31.5 -59.5t12.5 -80q0 -102 -60 -175t-149.5 -106t-195.5 -33q-173 0 -275.5 92.5t-85.5 254.5z" />
<glyph unicode="&#xe0;" horiz-adv-x="1234" d="M125 430q0 143 71.5 270t194.5 203t264 76q103 0 179 -41.5t114 -112.5l15 129h223l-101 -954h-223l15 129q-52 -69 -136.5 -111.5t-187.5 -42.5q-123 0 -222 62t-152.5 165.5t-53.5 227.5zM350 446q0 -117 67 -194.5t185 -77.5q133 0 222 99t89 235q0 117 -67.5 194.5 t-183.5 77.5q-133 0 -222.5 -99t-89.5 -235z" />
<glyph unicode="&#xe1;" horiz-adv-x="1234" d="M125 430q0 143 71.5 270t194.5 203t264 76q103 0 179 -41.5t114 -112.5l15 129h223l-101 -954h-223l15 129q-52 -69 -136.5 -111.5t-187.5 -42.5q-123 0 -222 62t-152.5 165.5t-53.5 227.5zM350 446q0 -117 67 -194.5t185 -77.5q133 0 222 99t89 235q0 117 -67.5 194.5 t-183.5 77.5q-133 0 -222.5 -99t-89.5 -235z" />
<glyph unicode="&#xe2;" horiz-adv-x="1234" d="M125 430q0 143 71.5 270t194.5 203t264 76q103 0 179 -41.5t114 -112.5l15 129h223l-101 -954h-223l15 129q-52 -69 -136.5 -111.5t-187.5 -42.5q-123 0 -222 62t-152.5 165.5t-53.5 227.5zM350 446q0 -117 67 -194.5t185 -77.5q133 0 222 99t89 235q0 117 -67.5 194.5 t-183.5 77.5q-133 0 -222.5 -99t-89.5 -235z" />
<glyph unicode="&#xe3;" horiz-adv-x="1234" d="M125 430q0 143 71.5 270t194.5 203t264 76q103 0 179 -41.5t114 -112.5l15 129h223l-101 -954h-223l15 129q-52 -69 -136.5 -111.5t-187.5 -42.5q-123 0 -222 62t-152.5 165.5t-53.5 227.5zM350 446q0 -117 67 -194.5t185 -77.5q133 0 222 99t89 235q0 117 -67.5 194.5 t-183.5 77.5q-133 0 -222.5 -99t-89.5 -235z" />
<glyph unicode="&#xe4;" horiz-adv-x="1234" d="M125 430q0 143 71.5 270t194.5 203t264 76q103 0 179 -41.5t114 -112.5l15 129h223l-101 -954h-223l15 129q-52 -69 -136.5 -111.5t-187.5 -42.5q-123 0 -222 62t-152.5 165.5t-53.5 227.5zM350 446q0 -117 67 -194.5t185 -77.5q133 0 222 99t89 235q0 117 -67.5 194.5 t-183.5 77.5q-133 0 -222.5 -99t-89.5 -235z" />
<glyph unicode="&#xe5;" horiz-adv-x="1234" d="M125 430q0 143 71.5 270t194.5 203t264 76q103 0 179 -41.5t114 -112.5l15 129h223l-101 -954h-223l15 129q-52 -69 -136.5 -111.5t-187.5 -42.5q-123 0 -222 62t-152.5 165.5t-53.5 227.5zM350 446q0 -117 67 -194.5t185 -77.5q133 0 222 99t89 235q0 117 -67.5 194.5 t-183.5 77.5q-133 0 -222.5 -99t-89.5 -235z" />
<glyph unicode="&#xe6;" horiz-adv-x="2322" d="M125 430q0 143 71.5 270t194.5 203t264 76q103 0 179 -41.5t114 -112.5l15 129h223l-101 -954h-223l15 129q-52 -69 -136.5 -111.5t-187.5 -42.5q-123 0 -222 62t-152.5 165.5t-53.5 227.5zM350 446q0 -117 67 -194.5t185 -77.5q133 0 222 99t89 235q0 117 -67.5 194.5 t-183.5 77.5q-133 0 -222.5 -99t-89.5 -235zM1364 420q0 156 64 283t182.5 201.5t269.5 74.5q188 0 300 -111.5t112 -287.5q0 -72 -29 -170h-682q-8 -248 229 -248q90 0 140 33t78 92h225q-34 -130 -160 -221t-307 -91q-139 0 -236 59.5t-141.5 158t-44.5 227.5zM1599 575 h476q10 108 -47 172t-162 64q-104 0 -180 -61.5t-87 -174.5z" />
<glyph unicode="&#xe7;" horiz-adv-x="1093" d="M129 424q0 107 36 205.5t102.5 177t171 125.5t231.5 47q104 0 184.5 -31.5t128 -84.5t70.5 -118.5t20 -138.5h-223q0 81 -49.5 127.5t-147.5 46.5q-74 0 -133 -28t-95 -76.5t-54.5 -109t-18.5 -128.5q0 -118 59.5 -191t186.5 -73q89 0 141.5 38.5t83.5 115.5h224 q-39 -158 -167 -255.5t-313 -97.5q-110 0 -195.5 36.5t-137.5 100t-78.5 142.5t-26.5 170z" />
<glyph unicode="&#xe8;" horiz-adv-x="1087" d="M129 420q0 156 64 283t182.5 201.5t269.5 74.5q188 0 300 -111.5t112 -287.5q0 -72 -29 -170h-682q-8 -248 229 -248q90 0 140 33t78 92h225q-34 -130 -160 -221t-307 -91q-139 0 -236 59.5t-141.5 158t-44.5 227.5zM365 575h475q10 108 -47 172t-162 64 q-104 0 -179.5 -61.5t-86.5 -174.5z" />
<glyph unicode="&#xe9;" horiz-adv-x="1087" d="M129 420q0 156 64 283t182.5 201.5t269.5 74.5q188 0 300 -111.5t112 -287.5q0 -72 -29 -170h-682q-8 -248 229 -248q90 0 140 33t78 92h225q-34 -130 -160 -221t-307 -91q-139 0 -236 59.5t-141.5 158t-44.5 227.5zM365 575h475q10 108 -47 172t-162 64 q-104 0 -179.5 -61.5t-86.5 -174.5z" />
<glyph unicode="&#xea;" horiz-adv-x="1087" d="M129 420q0 156 64 283t182.5 201.5t269.5 74.5q188 0 300 -111.5t112 -287.5q0 -72 -29 -170h-682q-8 -248 229 -248q90 0 140 33t78 92h225q-34 -130 -160 -221t-307 -91q-139 0 -236 59.5t-141.5 158t-44.5 227.5zM365 575h475q10 108 -47 172t-162 64 q-104 0 -179.5 -61.5t-86.5 -174.5z" />
<glyph unicode="&#xeb;" horiz-adv-x="1087" d="M129 420q0 156 64 283t182.5 201.5t269.5 74.5q188 0 300 -111.5t112 -287.5q0 -72 -29 -170h-682q-8 -248 229 -248q90 0 140 33t78 92h225q-34 -130 -160 -221t-307 -91q-139 0 -236 59.5t-141.5 158t-44.5 227.5zM365 575h475q10 108 -47 172t-162 64 q-104 0 -179.5 -61.5t-86.5 -174.5z" />
<glyph unicode="&#xec;" horiz-adv-x="522" d="M150 0l100 954h223l-100 -954h-223zM231 1288q0 73 55 126.5t128 53.5q64 0 106.5 -43.5t42.5 -107.5q0 -72 -55 -125t-127 -53q-65 0 -107.5 43.5t-42.5 105.5z" />
<glyph unicode="&#xed;" horiz-adv-x="522" d="M150 0l100 954h223l-100 -954h-223zM231 1288q0 73 55 126.5t128 53.5q64 0 106.5 -43.5t42.5 -107.5q0 -72 -55 -125t-127 -53q-65 0 -107.5 43.5t-42.5 105.5z" />
<glyph unicode="&#xee;" horiz-adv-x="522" d="M150 0l100 954h223l-100 -954h-223zM231 1288q0 73 55 126.5t128 53.5q64 0 106.5 -43.5t42.5 -107.5q0 -72 -55 -125t-127 -53q-65 0 -107.5 43.5t-42.5 105.5z" />
<glyph unicode="&#xef;" horiz-adv-x="522" d="M150 0l100 954h223l-100 -954h-223zM231 1288q0 73 55 126.5t128 53.5q64 0 106.5 -43.5t42.5 -107.5q0 -72 -55 -125t-127 -53q-65 0 -107.5 43.5t-42.5 105.5z" />
<glyph unicode="&#xf1;" d="M150 0l100 954h223l-14 -133q53 77 137.5 117.5t191.5 40.5q199 0 273 -129q52 -89 31 -283l-60 -567h-223l51 494q8 62 2 114.5t-23.5 91t-56.5 60.5t-96 22q-114 0 -181.5 -79.5t-80.5 -208.5l-51 -494h-223z" />
<glyph unicode="&#xf2;" horiz-adv-x="1163" d="M125 430q0 108 42 208.5t114.5 175.5t176.5 120t222 45q140 0 246 -62.5t159.5 -165t53.5 -227.5q0 -108 -42 -208.5t-115 -175.5t-177.5 -120t-222.5 -45q-140 0 -245.5 62.5t-158.5 165t-53 227.5zM350 446q0 -117 67 -194.5t185 -77.5q133 0 222 99t89 235 q0 117 -67.5 194.5t-183.5 77.5q-133 0 -222.5 -99t-89.5 -235z" />
<glyph unicode="&#xf3;" horiz-adv-x="1163" d="M125 430q0 108 42 208.5t114.5 175.5t176.5 120t222 45q140 0 246 -62.5t159.5 -165t53.5 -227.5q0 -108 -42 -208.5t-115 -175.5t-177.5 -120t-222.5 -45q-140 0 -245.5 62.5t-158.5 165t-53 227.5zM350 446q0 -117 67 -194.5t185 -77.5q133 0 222 99t89 235 q0 117 -67.5 194.5t-183.5 77.5q-133 0 -222.5 -99t-89.5 -235z" />
<glyph unicode="&#xf4;" horiz-adv-x="1163" d="M125 430q0 108 42 208.5t114.5 175.5t176.5 120t222 45q140 0 246 -62.5t159.5 -165t53.5 -227.5q0 -108 -42 -208.5t-115 -175.5t-177.5 -120t-222.5 -45q-140 0 -245.5 62.5t-158.5 165t-53 227.5zM350 446q0 -117 67 -194.5t185 -77.5q133 0 222 99t89 235 q0 117 -67.5 194.5t-183.5 77.5q-133 0 -222.5 -99t-89.5 -235z" />
<glyph unicode="&#xf5;" horiz-adv-x="1163" d="M125 430q0 108 42 208.5t114.5 175.5t176.5 120t222 45q140 0 246 -62.5t159.5 -165t53.5 -227.5q0 -108 -42 -208.5t-115 -175.5t-177.5 -120t-222.5 -45q-140 0 -245.5 62.5t-158.5 165t-53 227.5zM350 446q0 -117 67 -194.5t185 -77.5q133 0 222 99t89 235 q0 117 -67.5 194.5t-183.5 77.5q-133 0 -222.5 -99t-89.5 -235z" />
<glyph unicode="&#xf6;" horiz-adv-x="1163" d="M125 430q0 108 42 208.5t114.5 175.5t176.5 120t222 45q140 0 246 -62.5t159.5 -165t53.5 -227.5q0 -108 -42 -208.5t-115 -175.5t-177.5 -120t-222.5 -45q-140 0 -245.5 62.5t-158.5 165t-53 227.5zM350 446q0 -117 67 -194.5t185 -77.5q133 0 222 99t89 235 q0 117 -67.5 194.5t-183.5 77.5q-133 0 -222.5 -99t-89.5 -235z" />
<glyph unicode="&#xf8;" horiz-adv-x="1163" d="M125 430q0 108 42 208.5t114.5 175.5t176.5 120t222 45q140 0 246 -62.5t159.5 -165t53.5 -227.5q0 -108 -42 -208.5t-115 -175.5t-177.5 -120t-222.5 -45q-140 0 -245.5 62.5t-158.5 165t-53 227.5zM350 446q0 -117 67 -194.5t185 -77.5q133 0 222 99t89 235 q0 117 -67.5 194.5t-183.5 77.5q-133 0 -222.5 -99t-89.5 -235z" />
<glyph unicode="&#xf9;" d="M174 387l59 567h224l-51 -493q-8 -61 -2 -114t23.5 -92t56.5 -61t96 -22q114 0 181.5 80t80.5 209l51 493h223l-100 -954h-223l14 133q-112 -158 -330 -158q-198 0 -272 129q-52 89 -31 283z" />
<glyph unicode="&#xfa;" d="M174 387l59 567h224l-51 -493q-8 -61 -2 -114t23.5 -92t56.5 -61t96 -22q114 0 181.5 80t80.5 209l51 493h223l-100 -954h-223l14 133q-112 -158 -330 -158q-198 0 -272 129q-52 89 -31 283z" />
<glyph unicode="&#xfb;" d="M174 387l59 567h224l-51 -493q-8 -61 -2 -114t23.5 -92t56.5 -61t96 -22q114 0 181.5 80t80.5 209l51 493h223l-100 -954h-223l14 133q-112 -158 -330 -158q-198 0 -272 129q-52 89 -31 283z" />
<glyph unicode="&#xfc;" d="M174 387l59 567h224l-51 -493q-8 -61 -2 -114t23.5 -92t56.5 -61t96 -22q114 0 181.5 80t80.5 209l51 493h223l-100 -954h-223l14 133q-112 -158 -330 -158q-198 0 -272 129q-52 89 -31 283z" />
<glyph unicode="&#xfd;" horiz-adv-x="1183" d="M121 -104h225q-1 -105 56 -155t159 -50q223 0 246 227l22 219q-108 -157 -329 -157q-197 0 -271 129q-30 52 -36.5 126.5t4.5 155.5l59 567h223l-51 -493q-8 -61 -2 -114t23.5 -92t56.5 -61t96 -22q114 0 181.5 80t80.5 209l51 493h224l-109 -1040q-21 -209 -151 -315 q-129 -105 -353 -105l2 4q-196 0 -307 99q-117 105 -100 295z" />
<glyph unicode="&#xfe;" horiz-adv-x="1239" d="M98 -479l152 1433h223l-14 -129q52 69 136 111.5t187 42.5q123 0 222 -62t152.5 -165.5t53.5 -227.5q0 -143 -72 -270t-195.5 -203t-264.5 -76q-103 0 -179 41.5t-114 112.5l-63 -608h-224zM420 446q0 -116 68.5 -194t185.5 -78q133 0 222 99t89 235q0 117 -67 194.5 t-185 77.5q-133 0 -223 -99t-90 -235z" />
<glyph unicode="&#xff;" horiz-adv-x="1183" d="M121 -104h225q-1 -105 56 -155t159 -50q223 0 246 227l22 219q-108 -157 -329 -157q-197 0 -271 129q-30 52 -36.5 126.5t4.5 155.5l59 567h223l-51 -493q-8 -61 -2 -114t23.5 -92t56.5 -61t96 -22q114 0 181.5 80t80.5 209l51 493h224l-109 -1040q-21 -209 -151 -315 q-129 -105 -353 -105l2 4q-196 0 -307 99q-117 105 -100 295z" />
<glyph unicode="&#x152;" horiz-adv-x="2754" d="M150 643q0 126 38 247.5t111 225.5t171.5 183t227.5 124t271 45q158 0 287.5 -55.5t212 -150.5t127 -216t44.5 -255q0 -158 -60.5 -307t-165.5 -264t-259.5 -185t-331.5 -70q-158 0 -288 56t-213 150.5t-127.5 216t-44.5 255.5zM399 659q0 -95 29.5 -181.5t84.5 -154 t141 -107.5t190 -40q156 0 283.5 86.5t196.5 223t69 288.5q0 129 -50.5 237.5t-154 177t-240.5 68.5q-156 0 -284 -86.5t-196.5 -223t-68.5 -288.5zM1788 0l151 1434h828l-23 -211h-592l-43 -406h592l-22 -211h-592l-41 -395h592l-23 -211h-827z" />
<glyph unicode="&#x153;" horiz-adv-x="2250" d="M125 430q0 108 42 208.5t114.5 175.5t176.5 120t222 45q140 0 246 -62.5t159.5 -165t53.5 -227.5q0 -108 -42 -208.5t-115 -175.5t-177.5 -120t-222.5 -45q-140 0 -245.5 62.5t-158.5 165t-53 227.5zM350 446q0 -117 67 -194.5t185 -77.5q133 0 222 99t89 235 q0 117 -67.5 194.5t-183.5 77.5q-133 0 -222.5 -99t-89.5 -235zM1292 420q0 156 64 283t182.5 201.5t269.5 74.5q188 0 300 -111.5t112 -287.5q0 -72 -29 -170h-682q-8 -248 230 -248q90 0 139 33t78 92h225q-34 -130 -160 -221t-307 -91q-139 0 -236 59.5t-141.5 158 t-44.5 227.5zM1528 575h475q10 108 -47 172t-162 64q-104 0 -179.5 -61.5t-86.5 -174.5z" />
<glyph unicode="&#x178;" horiz-adv-x="1253" d="M174 1434h272l318 -617l373 617h258l-863 -1434h-258l347 573z" />
<glyph unicode="&#x2000;" horiz-adv-x="734" />
<glyph unicode="&#x2001;" horiz-adv-x="1468" />
<glyph unicode="&#x2002;" horiz-adv-x="734" />
<glyph unicode="&#x2003;" horiz-adv-x="1468" />
<glyph unicode="&#x2004;" horiz-adv-x="489" />
<glyph unicode="&#x2005;" horiz-adv-x="367" />
<glyph unicode="&#x2006;" horiz-adv-x="244" />
<glyph unicode="&#x2007;" horiz-adv-x="244" />
<glyph unicode="&#x2008;" horiz-adv-x="183" />
<glyph unicode="&#x2009;" horiz-adv-x="293" />
<glyph unicode="&#x200a;" horiz-adv-x="81" />
<glyph unicode="&#x2010;" horiz-adv-x="602" d="M113 483l20 199h479l-20 -199h-479z" />
<glyph unicode="&#x2011;" horiz-adv-x="602" d="M113 483l20 199h479l-20 -199h-479z" />
<glyph unicode="&#x2012;" horiz-adv-x="602" d="M113 483l20 199h479l-20 -199h-479z" />
<glyph unicode="&#x2013;" horiz-adv-x="602" d="M113 483l20 199h479l-20 -199h-479z" />
<glyph unicode="&#x2014;" horiz-adv-x="602" d="M113 483l20 199h479l-20 -199h-479z" />
<glyph unicode="&#x202f;" horiz-adv-x="293" />
<glyph unicode="&#x205f;" horiz-adv-x="367" />
<glyph unicode="&#x25fc;" horiz-adv-x="952" d="M0 0v952h952v-952h-952z" />
<glyph unicode="&#xfb01;" horiz-adv-x="1257" d="M121 768l20 186h195l12 119q8 75 28 135.5t45 98.5t59.5 66t63 41.5t65 21t56 9t44.5 1.5q42 0 72 -4t43 -8t34 -13l-20 -188q-54 14 -131 14q-17 0 -28.5 -1t-31 -9t-33 -22.5t-25.5 -44.5t-16 -72l-14 -144h250l-21 -186h-249l-80 -768h-223l79 768h-194zM885 0 l100 954h223l-100 -954h-223zM967 1288q0 73 54.5 126.5t127.5 53.5q64 0 106.5 -43.5t42.5 -107.5q0 -72 -55 -125t-127 -53q-65 0 -107 43t-42 106z" />
</font>
</defs>
</svg>
