<?xml version="1.0" standalone="no"?>
<!DOCTYPE svg PUBLIC "-//W3C//DTD SVG 1.1//EN" "http://www.w3.org/Graphics/SVG/1.1/DTD/svg11.dtd" >
<svg xmlns="http://www.w3.org/2000/svg" xmlns:xlink="http://www.w3.org/1999/xlink" version="1.1">
<metadata></metadata>
<defs>
<font id="gt_walsheim_pro_trialRgOb" horiz-adv-x="1157" >
<font-face units-per-em="2048" ascent="1516" descent="-532" />
<missing-glyph horiz-adv-x="518" />
<glyph horiz-adv-x="0" />
<glyph horiz-adv-x="0" />
<glyph horiz-adv-x="682" />
<glyph unicode=" "  horiz-adv-x="518" />
<glyph unicode="&#x09;" horiz-adv-x="518" />
<glyph unicode="&#xa0;" horiz-adv-x="518" />
<glyph unicode="!" horiz-adv-x="522" d="M131 119q0 65 47.5 111t110.5 46q56 0 93.5 -38t37.5 -93q0 -64 -49 -109.5t-113 -45.5q-55 0 -91 37t-36 92z" />
<glyph unicode="," horiz-adv-x="552" d="M104 -238l11 88q101 0 153 64q36 45 39 90q-16 -16 -53 -16q-52 0 -87.5 37.5t-35.5 93.5q0 65 48 111t118 46q69 0 109 -51.5t40 -150.5q0 -151 -91 -231.5t-251 -80.5z" />
<glyph unicode="-" horiz-adv-x="602" d="M115 504l16 160h479l-16 -160h-479z" />
<glyph unicode="." horiz-adv-x="522" d="M131 119q0 65 47.5 111t110.5 46q56 0 93.5 -38t37.5 -93q0 -64 -49 -109.5t-113 -45.5q-55 0 -91 37t-36 92z" />
<glyph unicode="0" horiz-adv-x="1185" d="M150 463l55 508q11 99 55 187.5t113 155t166 105.5t206 39q144 0 250.5 -67t155 -177.5t33.5 -242.5l-54 -508q-10 -98 -55 -187t-115 -155.5t-167.5 -106t-206.5 -39.5q-110 0 -199 40t-143.5 108t-79.5 156t-14 184zM336 463q-14 -132 60.5 -226t209.5 -94t229.5 93.5 t108.5 226.5l55 508q14 135 -62.5 227t-209.5 92q-135 0 -229.5 -92.5t-108.5 -226.5z" />
<glyph unicode="1" horiz-adv-x="706" d="M174 1047l16 149q96 0 157 12.5t97.5 43t52.5 72t23 110.5h178l-151 -1434h-193l111 1047h-291z" />
<glyph unicode="2" horiz-adv-x="1079" d="M96 0q14 133 43.5 236t68 173t99.5 128.5t120 96t148 81.5q143 67 201 109q142 103 142 253q0 102 -60.5 156.5t-165.5 54.5q-125 0 -207.5 -73.5t-95.5 -206.5h-186q14 137 87.5 240t183.5 155.5t239 52.5q176 0 283.5 -97.5t107.5 -266.5q0 -70 -18 -132t-58 -113 t-73 -87t-94 -74.5t-88 -54t-86 -45.5q-4 -3 -7 -4t-7 -3t-7 -4q-191 -101 -257 -181t-81 -226h682l-19 -168h-895z" />
<glyph unicode="3" horiz-adv-x="1144" d="M115 453h186q-13 -145 67 -226.5t212 -81.5q137 0 223 83.5t86 207.5q0 103 -66 166.5t-200 63.5h-103l19 165h102q146 0 216.5 71t70.5 179q0 103 -61.5 155t-170.5 52q-130 0 -204 -69t-86 -191h-189q21 194 158 311t332 117q176 0 291.5 -97.5t115.5 -262.5 q0 -128 -72 -221.5t-186 -126.5q105 -34 163 -113t58 -197q0 -132 -72.5 -239t-191.5 -164.5t-258 -57.5q-101 0 -186.5 33t-146 92.5t-89.5 150.5t-18 200z" />
<glyph unicode="4" horiz-adv-x="1130" d="M188 461l103 973h186l-84 -805h346l45 442h187l-45 -442h215l-19 -168h-215l-49 -461h-186l49 461h-533z" />
<glyph unicode="5" horiz-adv-x="1224" d="M184 465h187q-12 -134 61.5 -227t208.5 -93q146 0 242 105t96 248q0 123 -73 203.5t-201 80.5q-186 0 -285 -172h-191l86 824h844l-16 -168h-676l-51 -480q53 81 148 122.5t200 41.5q187 0 296 -123t109 -307q0 -146 -69 -270t-194.5 -198.5t-280.5 -74.5 q-146 0 -252.5 67.5t-154.5 178t-34 242.5z" />
<glyph unicode="6" horiz-adv-x="1138" d="M121 418q0 172 117 332l499 684h215l-381 -504q34 24 101 24q194 0 315 -128.5t121 -315.5q0 -105 -41.5 -202.5t-112.5 -170.5t-172.5 -116.5t-216.5 -43.5q-137 0 -239.5 61t-153.5 160t-51 220zM307 434q0 -123 74.5 -206t200.5 -83q144 0 241 104.5t97 248.5 q0 122 -75 204t-202 82q-143 0 -239.5 -103.5t-96.5 -246.5z" />
<glyph unicode="7" horiz-adv-x="956" d="M131 0l703 1266h-623l18 168h889l-788 -1434h-199z" />
<glyph unicode="8" horiz-adv-x="1187" d="M152 365q0 131 72.5 240.5t203.5 144.5q-89 32 -132.5 106.5t-43.5 169.5q0 179 137.5 304.5t353.5 125.5q193 0 303.5 -102.5t110.5 -259.5q0 -114 -61 -208.5t-181 -135.5q100 -29 151.5 -116t51.5 -194q0 -123 -64.5 -228.5t-186 -170t-275.5 -64.5q-205 0 -322.5 110 t-117.5 278zM338 383q0 -103 72.5 -170.5t199.5 -67.5q142 0 232 82t90 199q0 102 -71.5 169t-201.5 67q-144 0 -232.5 -81.5t-88.5 -197.5zM440 1028q0 -94 63.5 -154.5t176.5 -60.5q127 0 207 75.5t80 182.5q0 95 -64 156t-176 61q-126 0 -206.5 -76t-80.5 -184z" />
<glyph unicode="9" horiz-adv-x="1138" d="M180 922q0 143 69.5 265t195 195.5t278.5 73.5q204 0 324 -126.5t120 -313.5q0 -170 -118 -332l-498 -684h-215l377 500q-19 -19 -80 -19q-202 0 -327.5 124.5t-125.5 316.5zM369 936q0 -123 74.5 -205t199.5 -82q145 0 241.5 104t96.5 248q0 123 -73.5 205t-200.5 82 q-144 0 -241 -104t-97 -248z" />
<glyph unicode=":" horiz-adv-x="522" d="M131 119q0 65 47.5 111t110.5 46q56 0 93.5 -38t37.5 -93q0 -64 -49 -109.5t-113 -45.5q-55 0 -91 37t-36 92z" />
<glyph unicode=";" horiz-adv-x="552" d="M104 -238l11 88q101 0 153 64q36 45 39 90q-16 -16 -53 -16q-52 0 -87.5 37.5t-35.5 93.5q0 65 48 111t118 46q69 0 109 -51.5t40 -150.5q0 -151 -91 -231.5t-251 -80.5z" />
<glyph unicode="?" horiz-adv-x="522" d="M131 119q0 65 47.5 111t110.5 46q56 0 93.5 -38t37.5 -93q0 -64 -49 -109.5t-113 -45.5q-55 0 -91 37t-36 92z" />
<glyph unicode="A" horiz-adv-x="1144" d="M10 0l645 1434h136l344 -1434h-197l-53 219h-582l-96 -219h-197zM379 389h467l-154 739z" />
<glyph unicode="B" horiz-adv-x="1210" d="M160 0l151 1434h490q90 0 161 -21.5t114.5 -55t71.5 -79.5t39 -91.5t11 -94.5q0 -75 -26.5 -141t-69.5 -110.5t-94 -74t-103 -39.5q86 -7 160 -88.5t74 -208.5q0 -53 -14 -108.5t-50 -114.5t-89.5 -104t-140 -74t-194.5 -29h-491zM365 168h313q73 0 128.5 24t86 63 t45 80.5t14.5 84.5q0 38 -12 75t-36.5 70t-69 53.5t-103.5 20.5h-317zM432 809h307q72 0 127 24t85 63t44.5 80.5t14.5 82.5q0 37 -11.5 71.5t-36.5 66t-71.5 50.5t-108.5 19h-303z" />
<glyph unicode="C" horiz-adv-x="1587" d="M156 647q0 158 58.5 305.5t163 261.5t261.5 183t340 69q141 0 256.5 -40.5t194 -112t124 -169t52.5 -212.5h-197q-16 163 -131.5 264.5t-308.5 101.5q-138 0 -256.5 -54t-197.5 -143t-124 -203.5t-45 -235.5q0 -108 36 -204t100.5 -168t160.5 -113.5t211 -41.5 q169 0 301.5 85.5t194.5 221.5h204q-77 -207 -274 -341t-451 -134q-156 0 -285 54.5t-213 148t-129.5 216.5t-45.5 261z" />
<glyph unicode="D" horiz-adv-x="1427" d="M160 0l151 1434h443q128 0 238 -35.5t188.5 -97.5t134.5 -145t83 -178t27 -196q0 -117 -36 -230.5t-108 -213t-169.5 -175t-229.5 -119.5t-280 -44h-442zM365 168h256q137 0 254 52t193.5 137t119.5 192t43 219q0 97 -32.5 186t-93 159t-156.5 111.5t-214 41.5h-256z" />
<glyph unicode="E" horiz-adv-x="1114" d="M160 0l151 1434h805l-18 -168h-619l-49 -469h619l-19 -168h-618l-47 -461h618l-18 -168h-805z" />
<glyph unicode="F" horiz-adv-x="1101" d="M160 0l151 1434h805l-18 -168h-619l-53 -512h618l-18 -168h-618l-62 -586h-186z" />
<glyph unicode="G" horiz-adv-x="1712" d="M156 637q0 160 60 310t165 265t259 184.5t329 69.5q243 0 397.5 -123.5t163.5 -308.5h-189q-18 114 -123.5 189t-265.5 75q-132 0 -247 -54.5t-192.5 -144.5t-122 -206.5t-44.5 -239.5q0 -103 32 -195t93 -165t159.5 -115.5t221.5 -42.5q205 0 337 108.5t173 278.5h-338 l18 168h691l-19 -168h-153q-43 -161 -139.5 -284.5t-250 -197t-342.5 -73.5q-164 0 -295 55.5t-212 149.5t-123.5 213t-42.5 252z" />
<glyph unicode="H" horiz-adv-x="1359" d="M160 0l151 1434h187l-68 -637h668l67 637h187l-152 -1434h-186l65 629h-667l-66 -629h-186z" />
<glyph unicode="I" horiz-adv-x="512" d="M160 0l151 1434h193l-152 -1434h-192z" />
<glyph unicode="J" horiz-adv-x="1097" d="M76 455h186q-2 -25 -2 -48q0 -111 55 -184q67 -88 195 -88q126 0 207 87t96 233l102 979h187l-103 -979q-22 -215 -159.5 -351.5t-347.5 -136.5t-324 136q-96 114 -96 284q0 33 4 68z" />
<glyph unicode="K" horiz-adv-x="1208" d="M160 0l151 1434h187l-70 -652l672 652h235l-731 -717l580 -717h-236l-534 651l-68 -651h-186z" />
<glyph unicode="L" horiz-adv-x="870" d="M160 0l151 1434h187l-133 -1266h469l-19 -168h-655z" />
<glyph unicode="M" horiz-adv-x="1662" d="M160 0l151 1434h181l370 -1147l613 1147h180l-152 -1434h-188l104 999l-516 -999h-143l-309 999l-105 -999h-186z" />
<glyph unicode="N" horiz-adv-x="1357" d="M160 0l151 1434h207l529 -1108l116 1108h187l-152 -1434h-207l-528 1108l-117 -1108h-186z" />
<glyph unicode="O" horiz-adv-x="1644" d="M156 645q0 157 60.5 305.5t165.5 262.5t259.5 183.5t331.5 69.5q158 0 287 -55.5t211 -149.5t126.5 -215t44.5 -255q0 -157 -60 -306t-164.5 -263.5t-259.5 -184.5t-331 -70q-158 0 -287.5 56t-212 150.5t-127 216t-44.5 255.5zM350 659q0 -103 33 -197t93.5 -167 t155.5 -116.5t210 -43.5q130 0 244 54.5t192 144t123 205t45 237.5q0 103 -33 196.5t-93.5 166.5t-155.5 116t-210 43q-171 0 -311.5 -92t-216.5 -238t-76 -309z" />
<glyph unicode="P" horiz-adv-x="1220" d="M160 0l151 1434h504q202 0 322 -128t120 -315q0 -141 -68.5 -263t-195 -196.5t-282.5 -74.5h-318l-47 -457h-186zM412 627h317q147 0 244.5 103.5t97.5 246.5q0 123 -74.5 206t-199.5 83h-318z" />
<glyph unicode="Q" horiz-adv-x="1644" d="M156 645q0 157 60.5 305.5t165.5 262.5t259.5 183.5t331.5 69.5q127 0 236 -36.5t187.5 -100t134.5 -149.5t83.5 -186t27.5 -208q0 -279 -173 -499.5t-445 -288.5l109 -178l-175 -82l-139 229q-156 1 -283.5 57t-209.5 150.5t-126 215.5t-44 255zM350 659q0 -103 33 -197 t93.5 -167t155.5 -116.5t210 -43.5q130 0 244 54.5t192 144t123 205t45 237.5q0 104 -33 197.5t-93.5 166t-154.5 115.5t-209 43q-130 0 -244.5 -54t-192.5 -143t-123.5 -204.5t-45.5 -237.5z" />
<glyph unicode="R" horiz-adv-x="1241" d="M160 0l151 1434h504q202 0 322 -128t120 -315q0 -171 -101 -310t-267 -194l250 -487h-213l-238 457h-295l-47 -457h-186zM412 627h317q147 0 244.5 103.5t97.5 246.5q0 123 -74.5 206t-199.5 83h-318z" />
<glyph unicode="S" horiz-adv-x="1169" d="M141 457h187q-2 -24 -3 -46q1 -116 67 -189q78 -87 224 -87q135 0 223.5 73.5t88.5 192.5q0 46 -15.5 82.5t-37 59.5t-58.5 43t-64 30t-71 23q-61 20 -98 33t-88 35t-81.5 41.5t-64.5 49.5t-52.5 63t-31 77t-12.5 96q0 191 139 311.5t344 120.5q202 0 317 -120 q98 -103 98 -261q0 -28 -3 -57h-186q1 18 1 34q0 99 -50 162q-60 74 -189 74q-122 0 -202.5 -64.5t-80.5 -170.5q0 -49 18 -86.5t55 -63.5t74.5 -42.5t94.5 -34.5q52 -18 85.5 -30t79 -31t75 -36.5t63.5 -41.5t55 -51t40 -60.5t27.5 -74t8.5 -87.5q0 -136 -72.5 -241.5 t-191.5 -160.5t-262 -55q-222 -1 -348 133q-107 113 -107 290q0 33 4 67z" />
<glyph unicode="T" horiz-adv-x="978" d="M158 1266l18 168h930l-19 -168h-372l-133 -1266h-187l133 1266h-370z" />
<glyph unicode="U" horiz-adv-x="1288" d="M195 465l102 969h186l-102 -969q-2 -22 -3 -42q0 -112 66 -193q76 -95 213 -95q138 0 236.5 96.5t112.5 233.5l102 969h186l-102 -969q-15 -135 -87.5 -248t-195.5 -181.5t-270 -68.5t-255 69q-108 68 -156 180q-37 86 -37 186q0 31 4 63z" />
<glyph unicode="V" horiz-adv-x="1153" d="M160 1434h196l254 -1127l490 1127h196l-651 -1434h-135z" />
<glyph unicode="W" horiz-adv-x="1974" d="M164 1434h196l244 -1110l465 1110h141l232 -1110l477 1110h197l-643 -1434h-138l-231 1110l-463 -1110h-139z" />
<glyph unicode="X" horiz-adv-x="1122" d="M20 0l510 717l-358 717h211l270 -555l389 555h213l-512 -717l361 -717h-213l-273 555l-387 -555h-211z" />
<glyph unicode="Y" horiz-adv-x="1210" d="M172 1434h217l350 -670l408 670h205l-873 -1434h-205l349 569z" />
<glyph unicode="Z" d="M29 0l929 1266h-753l18 168h1067l-930 -1266h803l-18 -168h-1116z" />
<glyph unicode="_" horiz-adv-x="602" d="M115 504l16 160h479l-16 -160h-479z" />
<glyph unicode="a" horiz-adv-x="1222" d="M129 420q0 141 69.5 264t190.5 196.5t262 73.5q112 0 195 -48t121 -136l16 160h176l-96 -930h-176l16 162q-54 -84 -147.5 -134.5t-206.5 -50.5q-123 0 -220 61t-148.5 161.5t-51.5 220.5zM305 432q0 -126 77 -210.5t208 -84.5q148 0 247 106.5t99 254.5q0 126 -77 211.5 t-206 85.5q-149 0 -248.5 -107.5t-99.5 -255.5z" />
<glyph unicode="b" horiz-adv-x="1226" d="M160 0l151 1434h178l-69 -664q56 88 148.5 136t201.5 48q123 0 220.5 -60t149.5 -161t52 -223q0 -140 -69 -262.5t-189.5 -196.5t-261.5 -74q-113 0 -195.5 48.5t-122.5 136.5l-16 -162h-178zM385 432q0 -126 76.5 -210.5t206.5 -84.5q148 0 247 106.5t99 254.5 q0 126 -76 211.5t-205 85.5q-148 0 -248 -107.5t-100 -255.5z" />
<glyph unicode="c" horiz-adv-x="1083" d="M133 414q0 103 35.5 199t100 172.5t167 122.5t226.5 46q101 0 179.5 -30.5t123.5 -82.5t67 -115q21 -58 21 -122v-12h-179q0 87 -56 145t-171 58q-108 0 -186 -54t-114 -136t-36 -179q0 -129 67 -209t208 -80q195 0 262 182h178q-38 -153 -161.5 -247.5t-303.5 -94.5 q-107 0 -190.5 35.5t-134.5 97.5t-77 139t-26 165z" />
<glyph unicode="d" horiz-adv-x="1222" d="M129 420q0 141 69.5 264t190.5 196.5t262 73.5q112 0 195 -48t121 -136l69 664h176l-149 -1434h-176l16 162q-54 -84 -147.5 -134.5t-206.5 -50.5q-123 0 -220 61t-148.5 161.5t-51.5 220.5zM305 432q0 -126 77 -210.5t208 -84.5q148 0 247 106.5t99 254.5 q0 126 -77 211.5t-206 85.5q-149 0 -248.5 -107.5t-99.5 -255.5z" />
<glyph unicode="e" horiz-adv-x="1075" d="M133 412q0 151 62.5 274.5t178 195.5t261.5 72q182 0 291.5 -108.5t109.5 -278.5q0 -62 -24 -149h-705q-1 -15 -1 -30q0 -30 4 -57q6 -41 24 -79t47 -65t76 -43.5t108 -16.5q184 0 252 147h180q-37 -126 -158 -211.5t-294 -85.5q-202 0 -307 121t-105 314zM324 553h538 q2 20 2 38q0 94 -55 154q-66 72 -186 72q-117 0 -199.5 -70.5t-99.5 -193.5z" />
<glyph unicode="f" horiz-adv-x="710" d="M125 780l16 150h201l16 162q10 96 41 166t66.5 105t84.5 55t80.5 24t69.5 4q93 0 138 -25l-17 -151q-50 16 -112 16q-31 0 -52.5 -4.5t-49 -20t-45 -54t-23.5 -97.5l-19 -180h266l-16 -150h-266l-82 -780h-178l82 780h-201z" />
<glyph unicode="g" horiz-adv-x="1218" d="M84 -119h180v-7q0 -48 13 -88q14 -43 44.5 -78.5t86 -55t131.5 -19.5q145 0 235 75t107 233l22 221q-58 -88 -151 -136.5t-201 -48.5q-185 0 -303.5 129.5t-118.5 315.5q0 140 69.5 262.5t190.5 196t262 73.5q114 0 196.5 -49t119.5 -135l18 160h176l-104 -989 q-13 -122 -57 -212.5t-114.5 -145t-159.5 -81t-198 -26.5q-123 0 -213 32.5t-140 90t-72 127.5q-19 63 -19 135v20zM307 432q0 -126 76 -210.5t207 -84.5q148 0 248 107t100 254q0 126 -77 211.5t-206 85.5q-149 0 -248.5 -107.5t-99.5 -255.5z" />
<glyph unicode="h" d="M160 0l151 1434h178l-71 -668q53 88 143 138t209 50q183 0 262 -123q46 -71 46 -197q0 -40 -5 -85l-57 -549h-178l51 494q4 32 4 62t-4 58q-8 56 -30 96.5t-65.5 63.5t-105.5 23q-68 0 -123.5 -27t-91 -73t-57 -101.5t-27.5 -116.5l-51 -479h-178z" />
<glyph unicode="i" horiz-adv-x="497" d="M160 0l98 930h178l-98 -930h-178zM240 1270q0 64 47 110.5t110 46.5q56 0 93.5 -38.5t37.5 -94.5q0 -62 -47.5 -107.5t-111.5 -45.5q-55 0 -92 37.5t-37 91.5z" />
<glyph unicode="j" horiz-adv-x="497" d="M-78 -498l17 158q52 -12 79 -12q104 0 117 129l121 1153h180l-125 -1180q-14 -141 -82.5 -206.5t-173.5 -65.5q-83 0 -133 24zM240 1270q0 64 47 110.5t110 46.5q56 0 93.5 -38.5t37.5 -94.5q0 -63 -47 -108t-112 -45q-57 0 -93 37t-36 92z" />
<glyph unicode="k" horiz-adv-x="976" d="M160 0l151 1434h178l-98 -928l434 424h226l-473 -465l374 -465h-225l-344 422l-45 -422h-178z" />
<glyph unicode="l" horiz-adv-x="497" d="M160 0l151 1434h178l-151 -1434h-178z" />
<glyph unicode="m" horiz-adv-x="1687" d="M160 0l98 930h178l-18 -166q37 80 114.5 135t192.5 55q109 0 180 -53.5t86 -144.5q40 83 125 140.5t209 57.5q159 0 228 -99q55 -79 55 -200q0 -32 -4 -67l-62 -588h-178l55 535q3 30 3 57q0 88 -33 138q-43 66 -138 67q-106 0 -175.5 -82.5t-86.5 -241.5l-49 -473h-178 l55 524q4 36 4 67q0 206 -168 206q-106 0 -177.5 -83t-88.5 -241l-49 -473h-178z" />
<glyph unicode="n" d="M160 0l98 930h178l-18 -164q53 88 143 138t209 50q183 0 262 -123q46 -71 46 -197q0 -40 -5 -85l-57 -549h-178l51 494q4 32 4 62t-4 58q-8 56 -30 96.5t-65.5 63.5t-105.5 23q-68 0 -123.5 -27t-91 -73t-57 -101.5t-27.5 -116.5l-51 -479h-178z" />
<glyph unicode="o" horiz-adv-x="1146" d="M129 420q0 141 69 263t194.5 196.5t277.5 74.5q203 0 323.5 -127t120.5 -315q0 -106 -41.5 -203.5t-112.5 -171t-172.5 -117t-216.5 -43.5q-136 0 -238 61t-153 160.5t-51 221.5zM305 432q0 -126 77 -210.5t208 -84.5q148 0 247 106.5t99 254.5q0 126 -77 211.5 t-206 85.5q-149 0 -248.5 -107.5t-99.5 -255.5z" />
<glyph unicode="p" horiz-adv-x="1226" d="M106 -504l152 1434h178l-18 -160q58 88 151 136t201 48q123 0 220.5 -60t149.5 -161t52 -223q0 -140 -69 -262.5t-189.5 -196.5t-261.5 -74q-114 0 -197 48.5t-121 136.5l-69 -666h-179zM385 432q0 -126 76.5 -210.5t206.5 -84.5q148 0 247 106.5t99 254.5 q0 126 -76 211.5t-205 85.5q-148 0 -248 -107.5t-100 -255.5z" />
<glyph unicode="q" horiz-adv-x="1226" d="M131 422q0 140 69 262.5t190 196t263 73.5q114 0 196 -48t120 -136l16 160h178l-149 -1434h-178l69 666q-58 -88 -151 -136.5t-201 -48.5q-186 0 -304 129.5t-118 315.5zM309 432q0 -126 76 -210.5t207 -84.5q148 0 247 106.5t99 254.5q0 126 -77 211.5t-206 85.5 q-148 0 -247 -107.5t-99 -255.5z" />
<glyph unicode="r" horiz-adv-x="747" d="M160 0l98 930h178l-20 -182q45 86 137 141t195 55q51 0 86 -14l-19 -164q-44 10 -80 10q-157 0 -246.5 -98t-107.5 -270l-43 -408h-178z" />
<glyph unicode="s" horiz-adv-x="925" d="M117 313h174q-2 -17 -2 -32q0 -76 45 -115q54 -47 155 -47q91 0 146 36.5t55 104.5q0 24 -8.5 41.5t-20.5 29.5t-40.5 25t-51.5 21t-72 24t-85 29q-117 37 -172.5 84.5t-55.5 144.5q0 138 107 216.5t262 78.5q161 0 253 -86q81 -76 81 -193q0 -17 -2 -34h-172q2 14 2 26 q1 60 -35 98q-42 46 -135 46q-82 0 -135.5 -36.5t-53.5 -100.5q0 -52 40.5 -76.5t168.5 -65.5q28 -9 43 -14q68 -22 107 -39t76 -44.5t53 -65t16 -90.5q0 -143 -111 -222.5t-276 -79.5q-111 0 -194 36t-128 113q-36 62 -36 145q0 20 2 42z" />
<glyph unicode="t" horiz-adv-x="696" d="M123 780l16 150h172l33 313h178l-33 -313h242l-16 -150h-242l-45 -428q-4 -34 -4 -61q0 -26 4 -46q6 -42 26.5 -62t44.5 -26.5t62 -6.5q67 0 121 8l-16 -158q-70 -12 -164 -12q-22 0 -39.5 1t-42 5t-42.5 10.5t-40 18.5t-36 29t-29.5 41t-20.5 56q-6 33 -10 73 q-2 15 -1 30q0 28 5 61l49 467h-172z" />
<glyph unicode="u" d="M182 381l58 549h178l-51 -492q-3 -33 -3 -62q0 -98 35 -160q46 -82 166 -81q130 0 209 92.5t92 225.5l49 477h181l-99 -930h-178l19 166q-53 -88 -144 -138.5t-209 -50.5q-186 0 -264 121q-44 68 -44 192q0 42 5 91z" />
<glyph unicode="v" horiz-adv-x="987" d="M106 930h193l219 -676l367 676h192l-524 -930h-123z" />
<glyph unicode="w" horiz-adv-x="1503" d="M106 930h191l162 -656l303 656h176l162 -656l303 656h190l-458 -930h-123l-183 735l-337 -735h-123z" />
<glyph unicode="x" horiz-adv-x="901" d="M33 0l364 469l-262 461h205l174 -324l244 324h205l-361 -461l266 -469h-204l-179 330l-247 -330h-205z" />
<glyph unicode="y" horiz-adv-x="1173" d="M131 -121h180v-17q0 -235 240 -235q119 0 191.5 63t88.5 214l27 262q-112 -189 -350 -189q-186 0 -264 119q-33 51 -42 122q-3 31 -3 67q0 47 6 102l57 543h178l-51 -488q-4 -36 -4 -69q0 -238 203 -238q70 0 126 27t91.5 72.5t56.5 101t27 117.5l49 477h180l-108 -1026 q-45 -428 -480 -428q-214 0 -314 104q-87 90 -87 249q0 24 2 50z" />
<glyph unicode="z" horiz-adv-x="888" d="M49 0l580 772h-482l17 158h782l-579 -770h499l-16 -160h-801z" />
<glyph unicode="&#xad;" horiz-adv-x="602" d="M115 504l16 160h479l-16 -160h-479z" />
<glyph unicode="&#xc0;" horiz-adv-x="1144" d="M10 0l645 1434h136l344 -1434h-197l-53 219h-582l-96 -219h-197zM379 389h467l-154 739z" />
<glyph unicode="&#xc1;" horiz-adv-x="1144" d="M10 0l645 1434h136l344 -1434h-197l-53 219h-582l-96 -219h-197zM379 389h467l-154 739z" />
<glyph unicode="&#xc2;" horiz-adv-x="1144" d="M10 0l645 1434h136l344 -1434h-197l-53 219h-582l-96 -219h-197zM379 389h467l-154 739z" />
<glyph unicode="&#xc3;" horiz-adv-x="1144" d="M10 0l645 1434h136l344 -1434h-197l-53 219h-582l-96 -219h-197zM379 389h467l-154 739z" />
<glyph unicode="&#xc4;" horiz-adv-x="1144" d="M10 0l645 1434h136l344 -1434h-197l-53 219h-582l-96 -219h-197zM379 389h467l-154 739z" />
<glyph unicode="&#xc5;" horiz-adv-x="1144" d="M10 0l645 1434h136l344 -1434h-197l-53 219h-582l-96 -219h-197zM379 389h467l-154 739z" />
<glyph unicode="&#xc6;" horiz-adv-x="2258" d="M10 0l645 1434h136l344 -1434h-197l-53 219h-582l-96 -219h-197zM379 389h467l-154 739zM1305 0l151 1434h805l-18 -168h-619l-49 -469h618l-18 -168h-619l-47 -461h619l-19 -168h-804z" />
<glyph unicode="&#xc7;" horiz-adv-x="1587" d="M156 647q0 158 58.5 305.5t163 261.5t261.5 183t340 69q141 0 256.5 -40.5t194 -112t124 -169t52.5 -212.5h-197q-16 163 -131.5 264.5t-308.5 101.5q-138 0 -256.5 -54t-197.5 -143t-124 -203.5t-45 -235.5q0 -108 36 -204t100.5 -168t160.5 -113.5t211 -41.5 q169 0 301.5 85.5t194.5 221.5h204q-77 -207 -274 -341t-451 -134q-156 0 -285 54.5t-213 148t-129.5 216.5t-45.5 261z" />
<glyph unicode="&#xc8;" horiz-adv-x="1114" d="M160 0l151 1434h805l-18 -168h-619l-49 -469h619l-19 -168h-618l-47 -461h618l-18 -168h-805z" />
<glyph unicode="&#xc9;" horiz-adv-x="1114" d="M160 0l151 1434h805l-18 -168h-619l-49 -469h619l-19 -168h-618l-47 -461h618l-18 -168h-805z" />
<glyph unicode="&#xca;" horiz-adv-x="1114" d="M160 0l151 1434h805l-18 -168h-619l-49 -469h619l-19 -168h-618l-47 -461h618l-18 -168h-805z" />
<glyph unicode="&#xcb;" horiz-adv-x="1114" d="M160 0l151 1434h805l-18 -168h-619l-49 -469h619l-19 -168h-618l-47 -461h618l-18 -168h-805z" />
<glyph unicode="&#xcc;" horiz-adv-x="512" d="M160 0l151 1434h193l-152 -1434h-192z" />
<glyph unicode="&#xcd;" horiz-adv-x="512" d="M160 0l151 1434h193l-152 -1434h-192z" />
<glyph unicode="&#xce;" horiz-adv-x="512" d="M160 0l151 1434h193l-152 -1434h-192z" />
<glyph unicode="&#xcf;" horiz-adv-x="512" d="M160 0l151 1434h193l-152 -1434h-192z" />
<glyph unicode="&#xd0;" horiz-adv-x="1427" d="M160 0l151 1434h443q128 0 238 -35.5t188.5 -97.5t134.5 -145t83 -178t27 -196q0 -117 -36 -230.5t-108 -213t-169.5 -175t-229.5 -119.5t-280 -44h-442zM365 168h256q137 0 254 52t193.5 137t119.5 192t43 219q0 97 -32.5 186t-93 159t-156.5 111.5t-214 41.5h-256z" />
<glyph unicode="&#xd1;" horiz-adv-x="1357" d="M160 0l151 1434h207l529 -1108l116 1108h187l-152 -1434h-207l-528 1108l-117 -1108h-186z" />
<glyph unicode="&#xd2;" horiz-adv-x="1644" d="M156 645q0 157 60.5 305.5t165.5 262.5t259.5 183.5t331.5 69.5q158 0 287 -55.5t211 -149.5t126.5 -215t44.5 -255q0 -157 -60 -306t-164.5 -263.5t-259.5 -184.5t-331 -70q-158 0 -287.5 56t-212 150.5t-127 216t-44.5 255.5zM350 659q0 -103 33 -197t93.5 -167 t155.5 -116.5t210 -43.5q130 0 244 54.5t192 144t123 205t45 237.5q0 103 -33 196.5t-93.5 166.5t-155.5 116t-210 43q-171 0 -311.5 -92t-216.5 -238t-76 -309z" />
<glyph unicode="&#xd3;" horiz-adv-x="1644" d="M156 645q0 157 60.5 305.5t165.5 262.5t259.5 183.5t331.5 69.5q158 0 287 -55.5t211 -149.5t126.5 -215t44.5 -255q0 -157 -60 -306t-164.5 -263.5t-259.5 -184.5t-331 -70q-158 0 -287.5 56t-212 150.5t-127 216t-44.5 255.5zM350 659q0 -103 33 -197t93.5 -167 t155.5 -116.5t210 -43.5q130 0 244 54.5t192 144t123 205t45 237.5q0 103 -33 196.5t-93.5 166.5t-155.5 116t-210 43q-171 0 -311.5 -92t-216.5 -238t-76 -309z" />
<glyph unicode="&#xd4;" horiz-adv-x="1644" d="M156 645q0 157 60.5 305.5t165.5 262.5t259.5 183.5t331.5 69.5q158 0 287 -55.5t211 -149.5t126.5 -215t44.5 -255q0 -157 -60 -306t-164.5 -263.5t-259.5 -184.5t-331 -70q-158 0 -287.5 56t-212 150.5t-127 216t-44.5 255.5zM350 659q0 -103 33 -197t93.5 -167 t155.5 -116.5t210 -43.5q130 0 244 54.5t192 144t123 205t45 237.5q0 103 -33 196.5t-93.5 166.5t-155.5 116t-210 43q-171 0 -311.5 -92t-216.5 -238t-76 -309z" />
<glyph unicode="&#xd5;" horiz-adv-x="1644" d="M156 645q0 157 60.5 305.5t165.5 262.5t259.5 183.5t331.5 69.5q158 0 287 -55.5t211 -149.5t126.5 -215t44.5 -255q0 -157 -60 -306t-164.5 -263.5t-259.5 -184.5t-331 -70q-158 0 -287.5 56t-212 150.5t-127 216t-44.5 255.5zM350 659q0 -103 33 -197t93.5 -167 t155.5 -116.5t210 -43.5q130 0 244 54.5t192 144t123 205t45 237.5q0 103 -33 196.5t-93.5 166.5t-155.5 116t-210 43q-171 0 -311.5 -92t-216.5 -238t-76 -309z" />
<glyph unicode="&#xd6;" horiz-adv-x="1644" d="M156 645q0 157 60.5 305.5t165.5 262.5t259.5 183.5t331.5 69.5q158 0 287 -55.5t211 -149.5t126.5 -215t44.5 -255q0 -157 -60 -306t-164.5 -263.5t-259.5 -184.5t-331 -70q-158 0 -287.5 56t-212 150.5t-127 216t-44.5 255.5zM350 659q0 -103 33 -197t93.5 -167 t155.5 -116.5t210 -43.5q130 0 244 54.5t192 144t123 205t45 237.5q0 103 -33 196.5t-93.5 166.5t-155.5 116t-210 43q-171 0 -311.5 -92t-216.5 -238t-76 -309z" />
<glyph unicode="&#xd8;" horiz-adv-x="1644" d="M156 645q0 157 60.5 305.5t165.5 262.5t259.5 183.5t331.5 69.5q158 0 287 -55.5t211 -149.5t126.5 -215t44.5 -255q0 -157 -60 -306t-164.5 -263.5t-259.5 -184.5t-331 -70q-158 0 -287.5 56t-212 150.5t-127 216t-44.5 255.5zM350 659q0 -103 33 -197t93.5 -167 t155.5 -116.5t210 -43.5q130 0 244 54.5t192 144t123 205t45 237.5q0 103 -33 196.5t-93.5 166.5t-155.5 116t-210 43q-171 0 -311.5 -92t-216.5 -238t-76 -309z" />
<glyph unicode="&#xd9;" horiz-adv-x="1288" d="M195 465l102 969h186l-102 -969q-14 -140 62.5 -235t213.5 -95q138 0 236.5 96.5t112.5 233.5l102 969h186l-102 -969q-15 -135 -87.5 -248t-195.5 -181.5t-270 -68.5t-254.5 68.5t-156 181t-33.5 248.5z" />
<glyph unicode="&#xda;" horiz-adv-x="1288" d="M195 465l102 969h186l-102 -969q-14 -140 62.5 -235t213.5 -95q138 0 236.5 96.5t112.5 233.5l102 969h186l-102 -969q-15 -135 -87.5 -248t-195.5 -181.5t-270 -68.5t-254.5 68.5t-156 181t-33.5 248.5z" />
<glyph unicode="&#xdb;" horiz-adv-x="1288" d="M195 465l102 969h186l-102 -969q-14 -140 62.5 -235t213.5 -95q138 0 236.5 96.5t112.5 233.5l102 969h186l-102 -969q-15 -135 -87.5 -248t-195.5 -181.5t-270 -68.5t-254.5 68.5t-156 181t-33.5 248.5z" />
<glyph unicode="&#xdc;" horiz-adv-x="1288" d="M195 465l102 969h186l-102 -969q-14 -140 62.5 -235t213.5 -95q138 0 236.5 96.5t112.5 233.5l102 969h186l-102 -969q-15 -135 -87.5 -248t-195.5 -181.5t-270 -68.5t-254.5 68.5t-156 181t-33.5 248.5z" />
<glyph unicode="&#xdd;" horiz-adv-x="1210" d="M172 1434h217l350 -670l408 670h205l-873 -1434h-205l349 569z" />
<glyph unicode="&#xde;" horiz-adv-x="1220" d="M160 0l151 1434h504q202 0 322 -128t120 -315q0 -141 -68.5 -263t-195 -196.5t-282.5 -74.5h-318l-47 -457h-186zM412 627h317q147 0 244.5 103.5t97.5 246.5q0 123 -74.5 206t-199.5 83h-318z" />
<glyph unicode="&#xdf;" horiz-adv-x="1851" d="M117 313h174q-11 -100 43 -147t155 -47q91 0 146 36.5t55 104.5q0 24 -8.5 41.5t-20.5 29.5t-40.5 25t-51.5 21t-72 24t-85 29q-117 37 -172.5 84.5t-55.5 144.5q0 138 107 216.5t262 78.5q161 0 253 -86.5t79 -226.5h-172q9 78 -33.5 124t-134.5 46q-82 0 -135.5 -36.5 t-53.5 -100.5q0 -52 40.5 -76.5t168.5 -65.5q28 -9 43 -14q68 -22 107 -39t76 -44.5t53 -65t16 -90.5q0 -143 -111 -222.5t-276 -79.5q-111 0 -194 36t-128 113t-34 187zM1042 313h175q-11 -100 43 -147t155 -47q91 0 146 36.5t55 104.5q0 24 -8.5 41.5t-20.5 29.5t-41 25 t-52 21t-72 24t-85 29q-117 37 -172 84.5t-55 144.5q0 138 107 216.5t262 78.5q160 0 252 -86.5t79 -226.5h-172q9 78 -33.5 124t-134.5 46q-82 0 -135 -36.5t-53 -100.5q0 -52 40.5 -76.5t168.5 -65.5q28 -9 43 -14q68 -22 107 -39t76 -44.5t53 -65t16 -90.5 q0 -143 -111 -222.5t-276 -79.5q-83 0 -151 21t-117.5 61.5t-73 105.5t-15.5 148z" />
<glyph unicode="&#xe0;" horiz-adv-x="1222" d="M129 420q0 141 69.5 264t190.5 196.5t262 73.5q112 0 195 -48t121 -136l16 160h176l-96 -930h-176l16 162q-54 -84 -147.5 -134.5t-206.5 -50.5q-123 0 -220 61t-148.5 161.5t-51.5 220.5zM305 432q0 -126 77 -210.5t208 -84.5q148 0 247 106.5t99 254.5q0 126 -77 211.5 t-206 85.5q-149 0 -248.5 -107.5t-99.5 -255.5z" />
<glyph unicode="&#xe1;" horiz-adv-x="1222" d="M129 420q0 141 69.5 264t190.5 196.5t262 73.5q112 0 195 -48t121 -136l16 160h176l-96 -930h-176l16 162q-54 -84 -147.5 -134.5t-206.5 -50.5q-123 0 -220 61t-148.5 161.5t-51.5 220.5zM305 432q0 -126 77 -210.5t208 -84.5q148 0 247 106.5t99 254.5q0 126 -77 211.5 t-206 85.5q-149 0 -248.5 -107.5t-99.5 -255.5z" />
<glyph unicode="&#xe2;" horiz-adv-x="1222" d="M129 420q0 141 69.5 264t190.5 196.5t262 73.5q112 0 195 -48t121 -136l16 160h176l-96 -930h-176l16 162q-54 -84 -147.5 -134.5t-206.5 -50.5q-123 0 -220 61t-148.5 161.5t-51.5 220.5zM305 432q0 -126 77 -210.5t208 -84.5q148 0 247 106.5t99 254.5q0 126 -77 211.5 t-206 85.5q-149 0 -248.5 -107.5t-99.5 -255.5z" />
<glyph unicode="&#xe3;" horiz-adv-x="1222" d="M129 420q0 141 69.5 264t190.5 196.5t262 73.5q112 0 195 -48t121 -136l16 160h176l-96 -930h-176l16 162q-54 -84 -147.5 -134.5t-206.5 -50.5q-123 0 -220 61t-148.5 161.5t-51.5 220.5zM305 432q0 -126 77 -210.5t208 -84.5q148 0 247 106.5t99 254.5q0 126 -77 211.5 t-206 85.5q-149 0 -248.5 -107.5t-99.5 -255.5z" />
<glyph unicode="&#xe4;" horiz-adv-x="1222" d="M129 420q0 141 69.5 264t190.5 196.5t262 73.5q112 0 195 -48t121 -136l16 160h176l-96 -930h-176l16 162q-54 -84 -147.5 -134.5t-206.5 -50.5q-123 0 -220 61t-148.5 161.5t-51.5 220.5zM305 432q0 -126 77 -210.5t208 -84.5q148 0 247 106.5t99 254.5q0 126 -77 211.5 t-206 85.5q-149 0 -248.5 -107.5t-99.5 -255.5z" />
<glyph unicode="&#xe5;" horiz-adv-x="1222" d="M129 420q0 141 69.5 264t190.5 196.5t262 73.5q112 0 195 -48t121 -136l16 160h176l-96 -930h-176l16 162q-54 -84 -147.5 -134.5t-206.5 -50.5q-123 0 -220 61t-148.5 161.5t-51.5 220.5zM305 432q0 -126 77 -210.5t208 -84.5q148 0 247 106.5t99 254.5q0 126 -77 211.5 t-206 85.5q-149 0 -248.5 -107.5t-99.5 -255.5z" />
<glyph unicode="&#xe6;" horiz-adv-x="2297" d="M129 420q0 141 69.5 264t190.5 196.5t262 73.5q112 0 195 -48t121 -136l16 160h176l-96 -930h-176l16 162q-54 -84 -147.5 -134.5t-206.5 -50.5q-123 0 -220 61t-148.5 161.5t-51.5 220.5zM305 432q0 -126 77 -210.5t208 -84.5q148 0 247 106.5t99 254.5q0 126 -77 211.5 t-206 85.5q-149 0 -248.5 -107.5t-99.5 -255.5zM1356 412q0 151 62.5 274.5t178 195.5t261.5 72q182 0 291.5 -108.5t109.5 -278.5q0 -58 -25 -149h-704q-3 -46 3 -87t24 -79t47 -65t76 -43.5t108 -16.5q184 0 252 147h180q-37 -126 -158.5 -211.5t-294.5 -85.5 q-103 0 -182.5 33.5t-129 93t-74.5 137.5t-25 171zM1546 553h539q13 120 -53.5 192t-186.5 72q-117 0 -199.5 -70.5t-99.5 -193.5z" />
<glyph unicode="&#xe7;" horiz-adv-x="1083" d="M133 414q0 103 35.5 199t100 172.5t167 122.5t226.5 46q101 0 179.5 -30.5t123.5 -82.5t67.5 -115t20.5 -134h-179q0 87 -56 145t-171 58q-108 0 -186 -54t-114 -136t-36 -179q0 -129 67 -209t208 -80q195 0 262 182h178q-38 -153 -161.5 -247.5t-303.5 -94.5 q-107 0 -190.5 35.5t-134.5 97.5t-77 139t-26 165z" />
<glyph unicode="&#xe8;" horiz-adv-x="1075" d="M133 412q0 151 62.5 274.5t178 195.5t261.5 72q182 0 291.5 -108.5t109.5 -278.5q0 -62 -24 -149h-705q-3 -46 3 -87t24 -79t47 -65t76 -43.5t108 -16.5q184 0 252 147h180q-37 -126 -158 -211.5t-294 -85.5q-202 0 -307 121t-105 314zM324 553h538q13 120 -53 192 t-186 72q-117 0 -199.5 -70.5t-99.5 -193.5z" />
<glyph unicode="&#xe9;" horiz-adv-x="1075" d="M133 412q0 151 62.5 274.5t178 195.5t261.5 72q182 0 291.5 -108.5t109.5 -278.5q0 -62 -24 -149h-705q-3 -46 3 -87t24 -79t47 -65t76 -43.5t108 -16.5q184 0 252 147h180q-37 -126 -158 -211.5t-294 -85.5q-202 0 -307 121t-105 314zM324 553h538q13 120 -53 192 t-186 72q-117 0 -199.5 -70.5t-99.5 -193.5z" />
<glyph unicode="&#xea;" horiz-adv-x="1075" d="M133 412q0 151 62.5 274.5t178 195.5t261.5 72q182 0 291.5 -108.5t109.5 -278.5q0 -62 -24 -149h-705q-3 -46 3 -87t24 -79t47 -65t76 -43.5t108 -16.5q184 0 252 147h180q-37 -126 -158 -211.5t-294 -85.5q-202 0 -307 121t-105 314zM324 553h538q13 120 -53 192 t-186 72q-117 0 -199.5 -70.5t-99.5 -193.5z" />
<glyph unicode="&#xeb;" horiz-adv-x="1075" d="M133 412q0 151 62.5 274.5t178 195.5t261.5 72q182 0 291.5 -108.5t109.5 -278.5q0 -62 -24 -149h-705q-3 -46 3 -87t24 -79t47 -65t76 -43.5t108 -16.5q184 0 252 147h180q-37 -126 -158 -211.5t-294 -85.5q-202 0 -307 121t-105 314zM324 553h538q13 120 -53 192 t-186 72q-117 0 -199.5 -70.5t-99.5 -193.5z" />
<glyph unicode="&#xec;" horiz-adv-x="497" d="M160 0l98 930h178l-98 -930h-178zM240 1270q0 64 47 110.5t110 46.5q56 0 93.5 -38.5t37.5 -94.5q0 -62 -47.5 -107.5t-111.5 -45.5q-55 0 -92 37.5t-37 91.5z" />
<glyph unicode="&#xed;" horiz-adv-x="497" d="M160 0l98 930h178l-98 -930h-178zM240 1270q0 64 47 110.5t110 46.5q56 0 93.5 -38.5t37.5 -94.5q0 -62 -47.5 -107.5t-111.5 -45.5q-55 0 -92 37.5t-37 91.5z" />
<glyph unicode="&#xee;" horiz-adv-x="497" d="M160 0l98 930h178l-98 -930h-178zM240 1270q0 64 47 110.5t110 46.5q56 0 93.5 -38.5t37.5 -94.5q0 -62 -47.5 -107.5t-111.5 -45.5q-55 0 -92 37.5t-37 91.5z" />
<glyph unicode="&#xef;" horiz-adv-x="497" d="M160 0l98 930h178l-98 -930h-178zM240 1270q0 64 47 110.5t110 46.5q56 0 93.5 -38.5t37.5 -94.5q0 -62 -47.5 -107.5t-111.5 -45.5q-55 0 -92 37.5t-37 91.5z" />
<glyph unicode="&#xf1;" d="M160 0l98 930h178l-18 -164q53 88 143 138t209 50q183 0 262 -123q60 -94 41 -282l-57 -549h-178l51 494q8 64 0 119.5t-30 96.5t-65.5 64t-105.5 23q-68 0 -123.5 -27t-91 -73t-57 -101.5t-27.5 -116.5l-51 -479h-178z" />
<glyph unicode="&#xf2;" horiz-adv-x="1146" d="M129 420q0 141 69 263t194.5 196.5t277.5 74.5q203 0 323.5 -127t120.5 -315q0 -106 -41.5 -203.5t-112.5 -171t-172.5 -117t-216.5 -43.5q-136 0 -238 61t-153 160.5t-51 221.5zM305 432q0 -126 77 -210.5t208 -84.5q148 0 247 106.5t99 254.5q0 126 -77 211.5 t-206 85.5q-149 0 -248.5 -107.5t-99.5 -255.5z" />
<glyph unicode="&#xf3;" horiz-adv-x="1146" d="M129 420q0 141 69 263t194.5 196.5t277.5 74.5q203 0 323.5 -127t120.5 -315q0 -106 -41.5 -203.5t-112.5 -171t-172.5 -117t-216.5 -43.5q-136 0 -238 61t-153 160.5t-51 221.5zM305 432q0 -126 77 -210.5t208 -84.5q148 0 247 106.5t99 254.5q0 126 -77 211.5 t-206 85.5q-149 0 -248.5 -107.5t-99.5 -255.5z" />
<glyph unicode="&#xf4;" horiz-adv-x="1146" d="M129 420q0 141 69 263t194.5 196.5t277.5 74.5q203 0 323.5 -127t120.5 -315q0 -106 -41.5 -203.5t-112.5 -171t-172.5 -117t-216.5 -43.5q-136 0 -238 61t-153 160.5t-51 221.5zM305 432q0 -126 77 -210.5t208 -84.5q148 0 247 106.5t99 254.5q0 126 -77 211.5 t-206 85.5q-149 0 -248.5 -107.5t-99.5 -255.5z" />
<glyph unicode="&#xf5;" horiz-adv-x="1146" d="M129 420q0 141 69 263t194.5 196.5t277.5 74.5q203 0 323.5 -127t120.5 -315q0 -106 -41.5 -203.5t-112.5 -171t-172.5 -117t-216.5 -43.5q-136 0 -238 61t-153 160.5t-51 221.5zM305 432q0 -126 77 -210.5t208 -84.5q148 0 247 106.5t99 254.5q0 126 -77 211.5 t-206 85.5q-149 0 -248.5 -107.5t-99.5 -255.5z" />
<glyph unicode="&#xf6;" horiz-adv-x="1146" d="M129 420q0 141 69 263t194.5 196.5t277.5 74.5q203 0 323.5 -127t120.5 -315q0 -106 -41.5 -203.5t-112.5 -171t-172.5 -117t-216.5 -43.5q-136 0 -238 61t-153 160.5t-51 221.5zM305 432q0 -126 77 -210.5t208 -84.5q148 0 247 106.5t99 254.5q0 126 -77 211.5 t-206 85.5q-149 0 -248.5 -107.5t-99.5 -255.5z" />
<glyph unicode="&#xf8;" horiz-adv-x="1146" d="M129 420q0 141 69 263t194.5 196.5t277.5 74.5q203 0 323.5 -127t120.5 -315q0 -106 -41.5 -203.5t-112.5 -171t-172.5 -117t-216.5 -43.5q-136 0 -238 61t-153 160.5t-51 221.5zM305 432q0 -126 77 -210.5t208 -84.5q148 0 247 106.5t99 254.5q0 126 -77 211.5 t-206 85.5q-149 0 -248.5 -107.5t-99.5 -255.5z" />
<glyph unicode="&#xf9;" d="M182 381l58 549h178l-51 -492q-14 -140 32 -221.5t166 -81.5q130 0 209 92.5t92 225.5l49 477h181l-99 -930h-178l19 166q-53 -88 -144 -138.5t-209 -50.5q-186 0 -264 121q-59 91 -39 283z" />
<glyph unicode="&#xfa;" d="M182 381l58 549h178l-51 -492q-14 -140 32 -221.5t166 -81.5q130 0 209 92.5t92 225.5l49 477h181l-99 -930h-178l19 166q-53 -88 -144 -138.5t-209 -50.5q-186 0 -264 121q-59 91 -39 283z" />
<glyph unicode="&#xfb;" d="M182 381l58 549h178l-51 -492q-14 -140 32 -221.5t166 -81.5q130 0 209 92.5t92 225.5l49 477h181l-99 -930h-178l19 166q-53 -88 -144 -138.5t-209 -50.5q-186 0 -264 121q-59 91 -39 283z" />
<glyph unicode="&#xfc;" d="M182 381l58 549h178l-51 -492q-14 -140 32 -221.5t166 -81.5q130 0 209 92.5t92 225.5l49 477h181l-99 -930h-178l19 166q-53 -88 -144 -138.5t-209 -50.5q-186 0 -264 121q-59 91 -39 283z" />
<glyph unicode="&#xfd;" horiz-adv-x="1173" d="M131 -121h180q-9 -252 240 -252q119 0 191.5 63t88.5 214l27 262q-112 -189 -350 -189q-186 0 -264 119q-33 51 -41.5 122t2.5 169l57 543h178l-51 -488q-31 -307 199 -307q70 0 126 27t91.5 72.5t56.5 101t27 117.5l49 477h180l-108 -1026q-45 -428 -480 -428 q-214 0 -314 103.5t-85 299.5z" />
<glyph unicode="&#xfe;" horiz-adv-x="1226" d="M106 -504l152 1434h178l-18 -160q58 88 151 136t201 48q123 0 220.5 -60t149.5 -161t52 -223q0 -140 -69 -262.5t-189.5 -196.5t-261.5 -74q-114 0 -197 48.5t-121 136.5l-69 -666h-179zM385 432q0 -126 76.5 -210.5t206.5 -84.5q148 0 247 106.5t99 254.5 q0 126 -76 211.5t-205 85.5q-148 0 -248 -107.5t-100 -255.5z" />
<glyph unicode="&#xff;" horiz-adv-x="1173" d="M131 -121h180q-9 -252 240 -252q119 0 191.5 63t88.5 214l27 262q-112 -189 -350 -189q-186 0 -264 119q-33 51 -41.5 122t2.5 169l57 543h178l-51 -488q-31 -307 199 -307q70 0 126 27t91.5 72.5t56.5 101t27 117.5l49 477h180l-108 -1026q-45 -428 -480 -428 q-214 0 -314 103.5t-85 299.5z" />
<glyph unicode="&#x152;" horiz-adv-x="2758" d="M156 645q0 157 60.5 305.5t165.5 262.5t259.5 183.5t331.5 69.5q158 0 287 -55.5t211 -149.5t126.5 -215t44.5 -255q0 -157 -60 -306t-164.5 -263.5t-259.5 -184.5t-331 -70q-158 0 -287.5 56t-212 150.5t-127 216t-44.5 255.5zM350 659q0 -103 33 -197t93.5 -167 t155.5 -116.5t210 -43.5q130 0 244 54.5t192 144t123 205t45 237.5q0 103 -33 196.5t-93.5 166.5t-155.5 116t-210 43q-171 0 -311.5 -92t-216.5 -238t-76 -309zM1804 0l152 1434h805l-19 -168h-618l-49 -469h618l-18 -168h-619l-47 -461h619l-19 -168h-805z" />
<glyph unicode="&#x153;" horiz-adv-x="2222" d="M129 420q0 141 69 263t194.5 196.5t277.5 74.5q203 0 323.5 -127t120.5 -315q0 -106 -41.5 -203.5t-112.5 -171t-172.5 -117t-216.5 -43.5q-136 0 -238 61t-153 160.5t-51 221.5zM305 432q0 -126 77 -210.5t208 -84.5q148 0 247 106.5t99 254.5q0 126 -77 211.5 t-206 85.5q-149 0 -248.5 -107.5t-99.5 -255.5zM1280 412q0 151 62.5 274.5t178 195.5t261.5 72q182 0 291.5 -108.5t109.5 -278.5q0 -62 -24 -149h-705q-3 -46 3 -87t24 -79t47 -65t76 -43.5t108 -16.5q184 0 252 147h180q-37 -126 -158 -211.5t-294 -85.5q-202 0 -307 121 t-105 314zM1470 553h539q13 120 -53.5 192t-186.5 72q-117 0 -199.5 -70.5t-99.5 -193.5z" />
<glyph unicode="&#x178;" horiz-adv-x="1210" d="M172 1434h217l350 -670l408 670h205l-873 -1434h-205l349 569z" />
<glyph unicode="&#x2000;" horiz-adv-x="733" />
<glyph unicode="&#x2001;" horiz-adv-x="1466" />
<glyph unicode="&#x2002;" horiz-adv-x="733" />
<glyph unicode="&#x2003;" horiz-adv-x="1466" />
<glyph unicode="&#x2004;" horiz-adv-x="488" />
<glyph unicode="&#x2005;" horiz-adv-x="366" />
<glyph unicode="&#x2006;" horiz-adv-x="244" />
<glyph unicode="&#x2007;" horiz-adv-x="244" />
<glyph unicode="&#x2008;" horiz-adv-x="183" />
<glyph unicode="&#x2009;" horiz-adv-x="293" />
<glyph unicode="&#x200a;" horiz-adv-x="81" />
<glyph unicode="&#x2010;" horiz-adv-x="602" d="M115 504l16 160h479l-16 -160h-479z" />
<glyph unicode="&#x2011;" horiz-adv-x="602" d="M115 504l16 160h479l-16 -160h-479z" />
<glyph unicode="&#x2012;" horiz-adv-x="602" d="M115 504l16 160h479l-16 -160h-479z" />
<glyph unicode="&#x2013;" horiz-adv-x="602" d="M115 504l16 160h479l-16 -160h-479z" />
<glyph unicode="&#x2014;" horiz-adv-x="602" d="M115 504l16 160h479l-16 -160h-479z" />
<glyph unicode="&#x202f;" horiz-adv-x="293" />
<glyph unicode="&#x205f;" horiz-adv-x="366" />
<glyph unicode="&#x25fc;" horiz-adv-x="931" d="M0 0v932h932v-932h-932z" />
<glyph unicode="&#xfb01;" horiz-adv-x="1208" d="M125 780l16 150h201l16 162q10 96 41 166t66.5 105t84.5 55t80.5 24t69.5 4q93 0 138 -25l-17 -151q-50 16 -112 16q-31 0 -52.5 -4.5t-49 -20t-45 -54t-23.5 -97.5l-19 -180h266l-16 -150h-266l-82 -780h-178l82 780h-201zM870 0l99 930h178l-98 -930h-179zM950 1270 q0 64 47.5 110.5t110.5 46.5q56 0 93.5 -38.5t37.5 -94.5q0 -62 -48 -107.5t-112 -45.5q-55 0 -92 37.5t-37 91.5z" />
</font>
</defs>
</svg>
